<?xml version="1.0" encoding="UTF-8"?>
<svg version="1.1" xmlns="http://www.w3.org/2000/svg" width="1666" height="1652">
<path d="M0 0 C549.78 0 1099.56 0 1666 0 C1666 545.16 1666 1090.32 1666 1652 C1116.22 1652 566.44 1652 0 1652 C0 1106.84 0 561.68 0 0 Z " fill="#FEFEFE" transform="translate(0,0)"/>
<path d="M0 0 C549.78 0 1099.56 0 1666 0 C1666 545.16 1666 1090.32 1666 1652 C1116.22 1652 566.44 1652 0 1652 C0 1106.84 0 561.68 0 0 Z M678.88525391 118.33496094 C675.63872164 119.08327316 672.3879307 119.81136092 669.13671875 120.5390625 C666.79931523 121.066983 664.46207251 121.59561605 662.125 122.125 C661.04855225 122.36669922 659.97210449 122.60839844 658.86303711 122.85742188 C653.63000177 124.0588106 648.57120374 125.41889029 643.50488281 127.18994141 C640.37949311 128.20066685 637.21973904 129.00791614 634.0390625 129.828125 C625.35653204 132.08792599 616.87431106 134.88668523 608.375 137.75 C607.58530823 138.01489227 606.79561646 138.27978455 605.98199463 138.55270386 C559.44139147 154.18073144 514.46591645 174.35565237 472 199 C470.61167969 199.79857422 470.61167969 199.79857422 469.1953125 200.61328125 C455.42128059 208.54203071 442.09863974 217.00102902 429 226 C428.14100098 226.58958496 427.28200195 227.17916992 426.39697266 227.78662109 C415.06205789 235.59123328 403.9121283 243.61401359 393 252 C392.39462402 252.4650293 391.78924805 252.93005859 391.16552734 253.40917969 C383.63389972 259.21586751 376.29660474 265.21687069 369.0703125 271.3984375 C366.32265955 273.74257701 363.51199772 275.99883316 360.6875 278.25 C355.22099866 282.69353033 350.11239653 287.48302453 345.00854492 292.33300781 C341.48835356 295.67806305 337.93003925 298.96122083 334.296875 302.18359375 C328.65595627 307.24074612 323.29387283 312.55490576 317.94897461 317.9206543 C316.30760204 319.56741404 314.66091181 321.20872095 313.01367188 322.84960938 C308.00988492 327.85024082 303.08903763 332.88020828 298.49194336 338.26293945 C296.12022351 341.0243184 293.61482436 343.65805569 291.125 346.3125 C286.66298176 351.10861394 282.43214352 356.02841295 278.33203125 361.140625 C276.17306791 363.78779613 273.95667339 366.36672481 271.71069336 368.93945312 C265.2430478 376.3618513 259.27715747 384.07772843 253.45703125 392.01513672 C252.04112249 393.94398025 250.61569276 395.86539715 249.1875 397.78515625 C233.66951134 418.70190013 219.01952545 440.4377844 206 463 C205.5344873 463.80244141 205.06897461 464.60488281 204.58935547 465.43164062 C178.33894781 510.81512054 157.15932807 558.22404315 140.5625 607.9375 C140.31097168 608.68990967 140.05944336 609.44231934 139.80029297 610.2175293 C134.48393532 626.17185211 130.07650601 642.26760727 126.1875 658.625 C125.97067566 659.5357428 125.75385132 660.4464856 125.53045654 661.38482666 C117.36058877 695.83429842 111.39422595 730.33243551 107.8125 765.5625 C107.68507919 766.8063446 107.68507919 766.8063446 107.55508423 768.07531738 C101.08607506 831.86061934 104.54615823 896.85029837 115 960 C115.21269531 961.2998584 115.42539063 962.5997168 115.64453125 963.93896484 C119.63850821 987.91893135 125.63834502 1011.40424222 132.125 1034.8125 C132.33087738 1035.55627899 132.53675476 1036.30005798 132.74887085 1037.06637573 C143.50077073 1075.78212646 157.72312923 1113.01452271 174.77880859 1149.39013672 C175.90079379 1151.78798192 177.00961569 1154.19133808 178.11328125 1156.59765625 C199.9901263 1204.08509573 229.13034578 1247.71883852 261 1289 C261.474375 1289.61762207 261.94875 1290.23524414 262.4375 1290.87158203 C271.68755085 1302.90387474 281.59286323 1314.33385574 291.8046875 1325.55859375 C293.66789973 1327.63067141 295.5029782 1329.72211585 297.33203125 1331.82421875 C306.30955333 1342.09841434 315.80865492 1351.90065545 325.4375 1361.5625 C326.17009033 1362.29968262 326.90268066 1363.03686523 327.6574707 1363.79638672 C331.67793918 1367.80544767 335.79489299 1371.63421253 340.09545898 1375.34057617 C343.07690353 1377.93830449 345.93634918 1380.66202621 348.8125 1383.375 C353.80545284 1388.04683901 358.90568757 1392.49800315 364.24609375 1396.7734375 C366.71144912 1398.76670354 369.12510043 1400.80941129 371.52758789 1402.87768555 C379.04909126 1409.33930414 386.85682452 1415.38367218 394.78613281 1421.33496094 C396.91411118 1422.93540342 399.03147645 1424.54909221 401.1484375 1426.1640625 C422.71649992 1442.47126146 445.53746228 1457.56522611 469 1471 C469.64469238 1471.3727002 470.28938477 1471.74540039 470.95361328 1472.12939453 C474.83508003 1474.36981836 478.74213482 1476.55917033 482.66992188 1478.71728516 C484.34040291 1479.63688987 486.00805257 1480.56164507 487.67382812 1481.48974609 C512.56272823 1495.33597516 538.16912655 1507.43147946 564.5625 1518.125 C565.31697418 1518.43106171 566.07144836 1518.73712341 566.8487854 1519.05245972 C577.46319624 1523.34098577 588.17685103 1527.2718602 599 1531 C600.31254761 1531.45439453 600.31254761 1531.45439453 601.65161133 1531.91796875 C603.63962719 1532.6010015 605.63054327 1533.27353561 607.625 1533.9375 C608.34461914 1534.17710449 609.06423828 1534.41670898 609.80566406 1534.66357422 C619.81112618 1537.96279821 629.89807915 1541.01097964 640 1544 C641.06428223 1544.3182373 642.12856445 1544.63647461 643.22509766 1544.96435547 C652.36798575 1547.6468431 661.57330084 1549.8336956 670.875 1551.875 C672.0386911 1552.13162415 672.0386911 1552.13162415 673.22589111 1552.39343262 C704.19365547 1559.20613581 735.19922239 1564.28824749 766.75 1567.625 C767.79953857 1567.73610107 768.84907715 1567.84720215 769.93041992 1567.96166992 C772.86446975 1568.25801404 775.79942981 1568.53633509 778.73675537 1568.79815674 C780.38760126 1568.94538436 782.03815912 1569.09585219 783.6885376 1569.24822998 C801.26405497 1570.84653205 818.73077189 1571.40117591 836.375 1571.375 C837.36656727 1571.37486216 837.36656727 1571.37486216 838.3781662 1571.37472153 C878.14999938 1571.36762392 917.74576926 1568.49511461 957 1562 C958.11779846 1561.81757751 958.11779846 1561.81757751 959.25817871 1561.63146973 C997.28314948 1555.41455125 1034.36576814 1545.88576284 1071 1534 C1072.18722656 1533.61489258 1073.37445312 1533.22978516 1074.59765625 1532.83300781 C1119.5298925 1518.0855502 1163.31377442 1498.33581917 1204.20605469 1474.61914062 C1206.9258096 1473.04299465 1209.65390524 1471.48210456 1212.3828125 1469.921875 C1238.76968966 1454.70838266 1263.96189605 1437.22992339 1288.00390625 1418.55078125 C1289.89507027 1417.08152075 1291.79097612 1415.61858051 1293.6875 1414.15625 C1301.41863146 1408.16748076 1308.88031859 1401.90991639 1316.26318359 1395.49853516 C1317.96319681 1394.03175401 1319.67594935 1392.58167584 1321.39453125 1391.13671875 C1336.37041204 1378.52092146 1350.27044781 1364.82131076 1364.125 1351 C1365.07731003 1350.05170822 1365.07731003 1350.05170822 1366.04885864 1349.08425903 C1372.58748489 1342.56657128 1379.0345079 1336.05406972 1385 1329 C1386.45445517 1327.39231627 1387.91220895 1325.78760285 1389.375 1324.1875 C1393.25667774 1319.88688908 1396.93509634 1315.45569676 1400.57421875 1310.94921875 C1402.2601037 1308.89955187 1403.9573139 1306.88741919 1405.70703125 1304.89453125 C1413.74325766 1295.73427113 1421.06442976 1286.12650093 1428.28808594 1276.31591797 C1429.74361217 1274.34684755 1431.21345084 1272.39065906 1432.6953125 1270.44140625 C1446.95553647 1251.55571857 1460.05145388 1231.42014811 1472 1211 C1472.46245117 1210.21496094 1472.92490234 1209.42992187 1473.40136719 1208.62109375 C1481.26262636 1195.23443256 1488.53389881 1181.56866442 1495.59570312 1167.74560547 C1496.76877392 1165.45208075 1497.95186559 1163.16431359 1499.140625 1160.87890625 C1519.51664711 1121.37769856 1536.31507668 1078.34799774 1547.39746094 1035.32324219 C1548.21122396 1032.18557246 1549.07851466 1029.06305169 1549.9375 1025.9375 C1552.87338056 1014.85455087 1555.54544889 1003.70435529 1558.16699219 992.54345703 C1558.67518977 990.38168103 1559.18774663 988.22091621 1559.70800781 986.06201172 C1566.2394106 958.75202631 1569.18452489 930.36312433 1571.8125 902.4375 C1571.92416504 901.25349609 1572.03583008 900.06949219 1572.15087891 898.84960938 C1574.0111489 877.7131446 1574.24041675 856.57836693 1574.25 835.375 C1574.25110464 834.25384041 1574.25110464 834.25384041 1574.2522316 833.11003113 C1574.27236732 807.96804118 1573.56544413 783.0272279 1571 758 C1570.88785156 756.8562793 1570.77570313 755.71255859 1570.66015625 754.53417969 C1569.96617593 747.65649203 1569.04514192 740.83242034 1568 734 C1567.81099121 732.7325293 1567.62198242 731.46505859 1567.42724609 730.15917969 C1563.77363502 705.83785312 1558.70370292 681.91671469 1553 658 C1552.83095154 657.2894043 1552.66190308 656.57880859 1552.48773193 655.84667969 C1551.42643823 651.39331039 1550.34560515 646.94507927 1549.25 642.5 C1548.9929126 641.45263672 1548.7358252 640.40527344 1548.47094727 639.32617188 C1538.64359862 600.35425064 1523.54788771 562.18501213 1506.38134766 525.91845703 C1504.94621894 522.88637348 1503.5260384 519.84752188 1502.10546875 516.80859375 C1490.57249854 492.29390238 1477.28134937 468.99064235 1463 446 C1462.36884277 444.98035156 1461.73768555 443.96070313 1461.08740234 442.91015625 C1453.70801222 431.02102918 1445.98986308 419.48256133 1437.65625 408.24169922 C1435.93459672 405.91147805 1434.23148442 403.5685433 1432.53125 401.22265625 C1425.45067915 391.48282654 1418.11747249 382.01471071 1410.43701172 372.74121094 C1408.35496868 370.2184228 1406.30593205 367.6690823 1404.25 365.125 C1400.66068297 360.74024824 1396.92394958 356.51367393 1393.109375 352.32421875 C1391.25373343 350.27957665 1389.43243624 348.21215851 1387.625 346.125 C1378.17910346 335.32319918 1368.24133231 325.0823624 1358.08325195 314.95288086 C1355.80238023 312.67740416 1353.52695025 310.39658283 1351.25195312 308.11523438 C1349.77896659 306.64290819 1348.30567014 305.170892 1346.83203125 303.69921875 C1345.83016533 302.69431648 1345.83016533 302.69431648 1344.80805969 301.66911316 C1340.91312416 297.79322436 1336.91208065 294.09589032 1332.74816895 290.51005554 C1330.34544075 288.43459651 1328.01951488 286.27930302 1325.6875 284.125 C1321.17574807 280.01097827 1316.54435568 276.09890191 1311.79296875 272.265625 C1308.95478349 269.96332087 1306.16523516 267.61008977 1303.375 265.25 C1295.77580043 258.91406943 1287.92157312 252.92576651 1280 247 C1279.3282373 246.49662109 1278.65647461 245.99324219 1277.96435547 245.47460938 C1212.97669863 197.03936428 1140.68333272 160.70941407 1063.75 135.625 C1062.61256348 135.25356873 1062.61256348 135.25356873 1061.45214844 134.87463379 C1051.06786031 131.49634659 1040.62314599 128.42861738 1030.08453369 125.5692749 C1027.89290048 124.9707517 1025.70502082 124.35974463 1023.51757812 123.74609375 C1008.21459546 119.4633971 992.59295461 116.51696477 977.01928711 113.40612793 C975.03574701 113.0071896 973.05385343 112.60089743 971.07226562 112.19238281 C958.78987567 109.68107835 946.53026344 107.8494599 934.0625 106.5625 C932.86882813 106.43762207 931.67515625 106.31274414 930.4453125 106.18408203 C927.92090401 105.92106809 925.39632329 105.65970251 922.87158203 105.39990234 C918.9852803 104.99847958 915.10007253 104.58744499 911.21484375 104.17578125 C908.64328376 103.90832873 906.07167053 103.64138753 903.5 103.375 C902.34636963 103.2519751 901.19273926 103.1289502 900.00415039 103.00219727 C882.36744548 101.20567105 864.71673197 100.79086198 847 100.8125 C845.99343353 100.81343658 844.98686707 100.81437317 843.94979858 100.81533813 C788.30209938 100.92586799 733.17947271 105.77149694 678.88525391 118.33496094 Z " fill="#FEFEFE" transform="translate(0,0)"/>
<path d="M0 0 C1.53874786 -0.02220612 1.53874786 -0.02220612 3.10858154 -0.04486084 C19.34271997 -0.24142222 31.60565496 1.41795348 43.76953125 13.1484375 C51.94790221 21.96865529 55.70018285 32.95868578 55.5 44.83203125 C54.42281933 55.54773481 49.02507262 65.87538117 41.28515625 73.3359375 C32.93845924 80.06108806 23.48811923 83.63069858 12.87109375 83.7734375 C11.37954535 83.79920401 9.88800917 83.82568515 8.39648438 83.8527832 C7.60975342 83.86604645 6.82302246 83.87930969 6.01245117 83.89297485 C-33.47132214 84.61054866 -72.26000382 89.25902941 -110.875 97.5625 C-111.72481445 97.74280762 -112.57462891 97.92311523 -113.45019531 98.10888672 C-199.30534848 116.5010846 -281.07422487 159.15555177 -347.875 215.5625 C-349.07810729 216.56903158 -350.28123163 217.57554279 -351.484375 218.58203125 C-364.38412707 229.4390658 -376.49650949 241.10509676 -388.4375 253 C-389.27039551 253.82822266 -390.10329102 254.65644531 -390.96142578 255.50976562 C-395.80608373 260.36714435 -400.40452082 265.36113642 -404.875 270.5625 C-406.32945517 272.17018373 -407.78720895 273.77489715 -409.25 275.375 C-426.05811457 294.04754409 -441.22558803 314.4860301 -454.875 335.5625 C-455.31038086 336.23345703 -455.74576172 336.90441406 -456.19433594 337.59570312 C-498.0845783 402.40051183 -526.00445754 473.68463724 -539.51757812 549.5559082 C-539.84729177 551.406944 -540.18126345 553.25722 -540.515625 555.10742188 C-555.38534532 638.74959865 -548.81711384 730.54443361 -521.99609375 811.16259766 C-520.83703438 814.67763703 -519.71324268 818.20264371 -518.59375 821.73046875 C-497.53936376 887.42570358 -463.16165188 948.71170463 -418.875 1001.5625 C-418.44477539 1002.0776416 -418.01455078 1002.5927832 -417.57128906 1003.12353516 C-411.48422004 1010.40512128 -405.28221475 1017.55926527 -398.875 1024.5625 C-397.99585938 1025.53445313 -397.11671875 1026.50640625 -396.2109375 1027.5078125 C-390.49443602 1033.79723729 -384.62331767 1039.91610381 -378.625 1045.9375 C-377.6513147 1046.91807373 -377.6513147 1046.91807373 -376.65795898 1047.91845703 C-372.79334453 1051.77080909 -368.81329234 1055.43367326 -364.68310547 1058.99951172 C-362.43934085 1060.93909869 -360.25143387 1062.93640809 -358.0625 1064.9375 C-352.81319023 1069.66826093 -347.37876055 1074.13247052 -341.875 1078.5625 C-340.74186303 1079.48788408 -339.60906551 1080.41368393 -338.4765625 1081.33984375 C-268.60470527 1138.20414565 -184.49931378 1176.76918202 -43.4375 1202.25 C-42.27871338 1202.36947998 -41.11992676 1202.48895996 -39.92602539 1202.61206055 C-22.33186435 1204.31440318 -4.72961483 1204.77385018 12.9375 1204.75 C14.40774124 1204.74809662 14.40774124 1204.74809662 15.90768433 1204.74615479 C92.83437751 1204.55777877 168.70840972 1188.62061419 239.125 1157.5625 C240.25115723 1157.0675 241.37731445 1156.5725 242.53759766 1156.0625 C256.8957046 1149.70594941 270.82842543 1142.77432908 284.49560547 1135.04492188 C287.09332681 1133.58035697 289.7032959 1132.1400154 292.31640625 1130.703125 C340.51741528 1103.96513826 389.56738755 1066.89331295 425.36328125 1024.60546875 C427.21571375 1022.45730423 429.13336554 1020.37644303 431.06347656 1018.2980957 C436.67679049 1012.24880549 441.9671324 1006.00770316 447.125 999.5625 C448.04740375 998.43166043 448.97062196 997.30148485 449.89453125 996.171875 C507.636183 925.26309357 546.86082173 839.46021514 571.9609375 690.1171875 C572.05653709 688.82588676 572.05653709 688.82588676 572.15406799 687.50849915 C572.45414811 683.36430823 572.72748637 679.22045402 572.96166992 675.07202148 C573.45855685 666.99392018 574.28130228 659.84016116 578.125 652.5625 C578.59421875 651.67175781 579.0634375 650.78101563 579.546875 649.86328125 C586.04068487 640.14166589 593.85748009 634.64508658 604.95703125 630.953125 C616.01048123 628.96151239 627.30783753 629.96201769 637.125 635.5625 C643.86328593 640.40096364 649.19752385 646.24589333 653.125 653.5625 C653.66382813 654.50867188 654.20265625 655.45484375 654.7578125 656.4296875 C657.18170146 662.30100656 656.61809841 668.82123797 656.5625 675.0625 C656.55979095 675.77346832 656.55708191 676.48443665 656.55429077 677.21694946 C656.3980017 704.73105173 652.72272332 732.17880789 647.73974609 759.19970703 C647.16064492 762.36751466 646.61716709 765.53936302 646.08203125 768.71484375 C643.63832429 782.74616069 640.22149872 796.47756607 636.625 810.25 C636.39165955 811.14714722 636.15831909 812.04429443 635.91790771 812.96862793 C633.03957604 823.98653515 629.85878988 834.80375475 626.125 845.5625 C625.52931111 847.35222041 624.93538758 849.14252999 624.34375 850.93359375 C615.63229424 876.80742678 604.9683728 901.97551778 593.125 926.5625 C592.38467529 928.10091553 592.38467529 928.10091553 591.62939453 929.67041016 C579.04007596 955.67249442 564.52968923 980.76988334 548.125 1004.5625 C547.38926758 1005.63419434 547.38926758 1005.63419434 546.63867188 1006.72753906 C528.26120869 1033.44754605 507.97958487 1058.57773418 486.0078125 1082.42578125 C484.13815108 1084.45575325 482.27883484 1086.49429747 480.4296875 1088.54296875 C471.87745939 1097.98034 463.1281394 1107.32106998 453.40234375 1115.56640625 C450.80423552 1117.84365035 448.29748747 1120.20533907 445.78515625 1122.57641602 C440.04827585 1127.98882187 434.27541688 1133.25049835 428.10546875 1138.171875 C425.81199799 1140.01146099 423.5506539 1141.87389985 421.30078125 1143.765625 C411.89250072 1151.65565846 402.22259522 1159.01484737 392.19287109 1166.09570312 C390.31183333 1167.42997407 388.44408056 1168.78003952 386.58203125 1170.140625 C326.35433895 1214.04237971 257.84343218 1245.15010579 186.40966797 1265.61914062 C183.46720169 1266.46421939 180.53209757 1267.33070897 177.59765625 1268.203125 C150.192133 1276.19199872 121.71821223 1280.80375754 93.42181396 1284.2767334 C91.13346856 1284.56144635 88.84727789 1284.86004322 86.56103516 1285.16113281 C61.42023032 1288.42070027 36.37473279 1288.93454576 11.0625 1288.9375 C10.28890263 1288.93847813 9.51530525 1288.93945625 8.71826553 1288.94046402 C-16.96748404 1288.97155304 -42.39203791 1287.86499988 -67.875 1284.4375 C-69.04508102 1284.28177017 -69.04508102 1284.28177017 -70.23880005 1284.12289429 C-116.29382333 1277.92712291 -161.11378611 1267.15134297 -204.875 1251.5625 C-205.51914856 1251.33453735 -206.16329712 1251.10657471 -206.82696533 1250.8717041 C-266.33737168 1229.79681787 -324.42486545 1199.14335193 -374.02587891 1160.01464844 C-376.36909977 1158.17447446 -378.73795749 1156.36932959 -381.10839844 1154.56445312 C-396.68978505 1142.68144442 -411.54412235 1129.91894518 -425.875 1116.5625 C-426.50728516 1115.97533203 -427.13957031 1115.38816406 -427.79101562 1114.78320312 C-448.89721347 1095.17447282 -448.89721347 1095.17447282 -457.23828125 1085.4140625 C-458.83900496 1083.60321993 -460.51192304 1081.92841757 -462.25 1080.25 C-465.99822376 1076.56855974 -469.21630283 1072.52117371 -472.50390625 1068.4296875 C-474.78913478 1065.66633043 -477.17273933 1063.05271478 -479.625 1060.4375 C-485.62421854 1053.9097568 -490.8823175 1046.85961242 -496.20166016 1039.77539062 C-497.82944101 1037.62274901 -499.4781369 1035.48834562 -501.13671875 1033.359375 C-558.85248617 959.14717685 -597.52652715 870.59129867 -617.625 779.0625 C-617.89449463 777.83716553 -618.16398926 776.61183105 -618.44165039 775.34936523 C-619.28372751 771.4263284 -620.09143344 767.49754682 -620.875 763.5625 C-621.0356192 762.76091461 -621.1962384 761.95932922 -621.36172485 761.13345337 C-624.04259096 747.58971974 -625.90129315 734.06595113 -627.25805664 720.32885742 C-627.56416498 717.23316197 -627.8836002 714.13905549 -628.20507812 711.04492188 C-628.80293665 705.22100928 -629.35855005 699.39418919 -629.875 693.5625 C-629.93830505 692.84875214 -630.00161011 692.13500427 -630.0668335 691.39962769 C-631.38332445 675.73630542 -631.11931873 659.9572059 -631.125 644.25 C-631.12558914 643.5041011 -631.12617828 642.75820221 -631.12678528 641.98970032 C-631.13956875 619.04152028 -630.6375187 596.36728347 -627.875 573.5625 C-627.58195439 570.93881067 -627.28898619 568.31511269 -626.99609375 565.69140625 C-622.05501551 523.22562787 -612.89403607 480.9757322 -598.875 440.5625 C-598.32028468 438.91060224 -597.76687222 437.25826633 -597.21484375 435.60546875 C-587.32915749 406.33021009 -575.06279875 378.00443188 -560.89697266 350.55322266 C-559.76505261 348.3483311 -558.65479423 346.13305681 -557.54296875 343.91796875 C-539.49665286 308.33807544 -516.8577124 274.61798517 -491.875 243.5625 C-491.34874023 242.90475586 -490.82248047 242.24701172 -490.28027344 241.56933594 C-484.38562165 234.20707853 -478.46506003 226.90718052 -472.0703125 219.96875 C-470.19648691 217.91487712 -468.36373107 215.8355869 -466.5390625 213.73828125 C-457.4102284 203.28276538 -447.7337262 193.32788263 -437.9375 183.5 C-437.15729492 182.71520264 -436.37708984 181.93040527 -435.57324219 181.12182617 C-431.4078299 176.9675252 -427.15780171 172.9799131 -422.69946289 169.1418457 C-420.09351311 166.88600613 -417.5846015 164.53675818 -415.0625 162.1875 C-409.5184782 157.07195938 -403.75554237 152.28807063 -397.875 147.5625 C-396.59930624 146.51939502 -395.32463149 145.47504301 -394.05078125 144.4296875 C-386.1329723 137.94008491 -378.14096861 131.60686445 -369.875 125.5625 C-369.23401367 125.08876953 -368.59302734 124.61503906 -367.93261719 124.12695312 C-338.89059705 102.6734627 -307.76758968 83.53337012 -275.28027344 67.74072266 C-272.54500161 66.40085036 -269.82404726 65.03362931 -267.1015625 63.66796875 C-228.68469588 44.57718011 -187.66256931 29.30082992 -145.875 19.5625 C-144.39967948 19.20975243 -142.92459388 18.8560213 -141.44970703 18.50146484 C-94.86314704 7.32901474 -47.97376079 0.36667491 0 0 Z " fill="#F67020" transform="translate(826.875,191.4375)"/>
<path d="M0 0 C0.96411804 -0.00108765 1.92823608 -0.00217529 2.92156982 -0.0032959 C22.77353312 -0.000741 42.3839882 1.06121921 62.125 3.125 C63.80854788 3.29667437 65.49214173 3.46789854 67.17578125 3.63867188 C72.11852202 4.14255267 77.05957044 4.66147602 82 5.1875 C82.82156586 5.27472321 83.64313171 5.36194641 84.48959351 5.45181274 C86.90615142 5.70972229 89.32227945 5.97131143 91.73828125 6.234375 C92.4525528 6.3107872 93.16682434 6.3871994 93.90274048 6.46592712 C101.67020421 7.32253759 109.3311658 8.70119748 117 10.1875 C118.39049561 10.45651123 118.39049561 10.45651123 119.80908203 10.73095703 C134.00492771 13.49452562 148.16490057 16.42189915 162.27832031 19.58007812 C164.04232552 19.97376712 165.80725423 20.36334969 167.57324219 20.74804688 C205.82909871 29.10397045 244.09081463 42.63897244 280 58.1875 C281.14662109 58.68185547 282.29324219 59.17621094 283.47460938 59.68554688 C309.48317967 70.96208938 334.94077026 83.36874187 359.42382812 97.68164062 C361.84379618 99.0961936 364.27280692 100.49396119 366.703125 101.890625 C394.73468654 118.18941288 421.69957152 136.9280144 447 157.1875 C447.86753906 157.87199219 448.73507812 158.55648437 449.62890625 159.26171875 C455.9709519 164.28038409 462.14617525 169.4891614 468.296875 174.73876953 C469.97339988 176.16487312 471.65765292 177.5813283 473.34375 178.99609375 C489.06344746 192.23720445 503.58637838 206.67930341 518.125 221.1875 C518.85554596 221.91536713 519.58609192 222.64323425 520.33877563 223.39315796 C522.46063304 225.50911825 524.57860764 227.62888655 526.6953125 229.75 C527.32709915 230.37981277 527.9588858 231.00962555 528.6098175 231.65852356 C532.39442405 235.4625056 535.99270655 239.38328033 539.49743652 243.44682312 C541.41570401 245.66908122 543.3943018 247.8333742 545.375 250 C549.22050182 254.26630589 552.89731266 258.639193 556.5078125 263.10546875 C558.30393609 265.32669369 560.11008536 267.53650377 561.9296875 269.73828125 C618.49957264 338.40078127 661.80304091 417.73737862 704.3125 549.8125 C704.50220367 550.57284546 704.69190735 551.33319092 704.88735962 552.11657715 C715.51338097 594.92484572 722.92839287 638.17145432 726 682.1875 C726.09498779 683.37102051 726.18997559 684.55454102 726.2878418 685.77392578 C727.29045558 699.73209213 727.18727415 713.72345183 727.18530273 727.70996094 C727.1852223 730.66640451 727.19204331 733.62269037 727.20581055 736.57910156 C727.33735245 765.35370112 726.10541465 793.85817147 722.5625 822.4375 C722.35531078 824.18089363 722.14893556 825.92438418 721.94335938 827.66796875 C717.99988757 860.75746617 717.99988757 860.75746617 714.8125 875.375 C714.6067334 876.33728516 714.4009668 877.29957031 714.18896484 878.29101562 C713.47376254 881.59321861 712.73997274 884.89075919 712 888.1875 C711.85564514 888.83172913 711.71129028 889.47595825 711.56256104 890.13970947 C707.5127569 908.17758993 703.19650384 926.0726422 697.75097656 943.74951172 C697.09054199 945.89356232 696.44445018 948.04112328 695.8046875 950.19140625 C684.00000771 989.11382948 669.00467984 1027.66255661 650.2421875 1063.78564453 C648.97385112 1066.23806067 647.71972383 1068.69751588 646.46731567 1071.15809631 C639.378204 1085.07781311 632.21628219 1098.89111905 624 1112.1875 C623.44876465 1113.08742676 622.8975293 1113.98735352 622.32958984 1114.91455078 C613.93126641 1128.60948002 605.22672289 1142.03691262 596 1155.1875 C595.57976562 1155.79142578 595.15953125 1156.39535156 594.7265625 1157.01757812 C584.15315615 1172.20389214 572.93072372 1187.04169706 561 1201.1875 C560.154375 1202.19425781 559.30875 1203.20101563 558.4375 1204.23828125 C556.11217194 1207.00060053 553.77404939 1209.75181582 551.43261719 1212.50048828 C550.01400845 1214.17100403 548.60406198 1215.84851042 547.1953125 1217.52734375 C534.56145551 1232.5216574 520.83931808 1246.43989718 507 1260.3125 C506.36780548 1260.94737335 505.73561096 1261.5822467 505.08425903 1262.23635864 C498.56539887 1268.77616106 492.0444809 1275.20914193 485 1281.1875 C483.22429779 1282.80717817 481.45291693 1284.43161718 479.6875 1286.0625 C475.19986568 1290.15507435 470.59069772 1294.04020834 465.86328125 1297.8515625 C463.34645702 1299.90485157 460.87536321 1302.00219814 458.41503906 1304.12255859 C451.2404382 1310.28939254 443.77259527 1315.98748203 436.15527344 1321.59423828 C433.96136455 1323.21606082 431.78061369 1324.85437568 429.6015625 1326.49609375 C354.64870665 1382.72079588 267.89236207 1423.68066751 160 1451.1875 C158.81631836 1451.47608887 157.63263672 1451.76467773 156.41308594 1452.06201172 C126.06634992 1459.37293664 95.04818532 1464.08912746 64 1467.1875 C63.25949402 1467.2626886 62.51898804 1467.3378772 61.75604248 1467.41534424 C17.70573728 1471.84521405 -27.88171731 1472.65763715 -71.91455078 1467.64501953 C-75.49248085 1467.23777986 -79.07374513 1466.87859663 -82.65783691 1466.53024292 C-115.90192745 1463.29240795 -148.38628862 1457.25539908 -180.89761353 1449.67651367 C-183.07243089 1449.17065262 -185.24843956 1448.67014256 -187.42456055 1448.16992188 C-195.53481343 1446.2963775 -203.57897613 1444.30377433 -211.5625 1441.9375 C-212.56933838 1441.64085449 -213.57617676 1441.34420898 -214.61352539 1441.03857422 C-225.83503837 1437.69451282 -236.93299608 1434.00846461 -248 1430.1875 C-248.98516602 1429.85024902 -249.97033203 1429.51299805 -250.98535156 1429.16552734 C-297.5701298 1413.14297956 -342.93664647 1391.83138658 -385 1366.1875 C-385.78826172 1365.7116748 -386.57652344 1365.23584961 -387.38867188 1364.74560547 C-417.51147016 1346.54302786 -445.95159366 1325.96919405 -473.16650391 1303.68457031 C-474.79694039 1302.35330047 -476.43504819 1301.03143831 -478.07421875 1299.7109375 C-483.62260294 1295.23107238 -488.96082142 1290.58139125 -494.19921875 1285.7421875 C-496.39027915 1283.74364705 -498.60190239 1281.78482518 -500.83984375 1279.83984375 C-511.48833477 1270.54852561 -521.617802 1260.66040542 -531.625 1250.6875 C-532.35831543 1249.95877686 -533.09163086 1249.23005371 -533.84716797 1248.47924805 C-537.83849606 1244.47647955 -541.64808309 1240.37557036 -545.33837891 1236.09423828 C-547.9370373 1233.11223386 -550.66130317 1230.25189237 -553.375 1227.375 C-558.0251341 1222.40565447 -562.44966938 1217.32853828 -566.703125 1212.01171875 C-568.84768959 1209.37477963 -571.05255812 1206.80961241 -573.28735352 1204.24975586 C-579.78628249 1196.79372513 -585.73380414 1189.01629969 -591.60351562 1181.06005859 C-593.64938662 1178.31673157 -595.76418165 1175.63120774 -597.875 1172.9375 C-619.80493618 1144.49546399 -638.88302859 1113.38805458 -655.6796875 1081.67236328 C-656.93849117 1079.30326127 -658.21628659 1076.94551879 -659.5 1074.58984375 C-682.66633136 1031.78953732 -701.97305266 984.50330162 -714.16992188 937.35888672 C-715.07833648 933.88820857 -716.02863432 930.43059181 -716.984375 926.97265625 C-727.76818528 887.73940159 -735.01692557 847.67785464 -739 807.1875 C-739.0751886 806.43003479 -739.1503772 805.67256958 -739.22784424 804.89215088 C-741.57529965 780.90668364 -742.28511241 756.96497415 -742.3125 732.875 C-742.31608521 731.61731812 -742.31967041 730.35963623 -742.32336426 729.06384277 C-742.36327983 703.09409492 -740.76273649 677.29141432 -737.75 651.5 C-737.64395447 650.5792569 -737.53790894 649.65851379 -737.4286499 648.70986938 C-734.21688497 621.02724698 -729.28676446 593.85059207 -722.84375 566.74462891 C-722.03787941 563.34719416 -721.25087747 559.94593613 -720.46875 556.54296875 C-705.11235425 490.30039114 -678.20267539 425.85301606 -644 367.1875 C-643.17387207 365.76002441 -643.17387207 365.76002441 -642.33105469 364.30371094 C-635.99163163 353.35781217 -629.51318379 342.56723929 -622.34375 332.14355469 C-620.83529165 329.94773922 -619.33927591 327.74370497 -617.84375 325.5390625 C-608.66776961 312.03608739 -599.33761067 298.7011889 -589.28417969 285.83496094 C-587.97704912 284.15805655 -586.67948428 282.47406296 -585.3828125 280.7890625 C-579.07432806 272.62947533 -572.43165683 264.81445475 -565.63183594 257.06201172 C-564.00251652 255.19039076 -562.39261581 253.30388103 -560.7890625 251.41015625 C-556.0051395 245.76103982 -551.23381476 240.23292156 -545.89941406 235.08789062 C-544.1899395 233.37753716 -542.63383585 231.62634854 -541.078125 229.77734375 C-536.2475151 224.21711382 -531.01804215 219.05603861 -525.80297852 213.86010742 C-524.066064 212.128553 -522.33456111 210.39171641 -520.60351562 208.65429688 C-515.44183547 203.48951756 -510.27483606 198.3983017 -504.71508789 193.6574707 C-501.95909922 191.29536283 -499.33438854 188.79521127 -496.6875 186.3125 C-491.87244557 181.83329841 -486.93468156 177.5798023 -481.8046875 173.4609375 C-479.2571011 171.39590229 -476.75747435 169.28816848 -474.26708984 167.15527344 C-467.365244 161.24878746 -460.27277043 155.63037172 -453 150.1875 C-452.28537598 149.6522168 -451.57075195 149.11693359 -450.83447266 148.56542969 C-440.66613791 140.96866916 -430.39573862 133.55283492 -419.87353516 126.45361328 C-418.0708317 125.23536724 -416.27525741 124.00720873 -414.48046875 122.77734375 C-358.24581165 84.48875504 -295.51431513 55.08949378 -230.875 34.125 C-230.18801025 33.90102539 -229.50102051 33.67705078 -228.79321289 33.44628906 C-220.97276878 30.90890983 -213.13403458 28.643415 -205.14247131 26.70983887 C-200.09670415 25.4846006 -195.1066124 24.10613423 -190.11328125 22.68359375 C-181.2100236 20.17204407 -172.24322822 18.12893418 -163.1875 16.25 C-162.38007355 16.08141479 -161.57264709 15.91282959 -160.74075317 15.73913574 C-107.52409479 4.67685684 -54.33052494 0.0326905 0 0 Z M-136 36.1875 C-137.15000488 36.3952002 -138.30000977 36.60290039 -139.48486328 36.81689453 C-159.32062021 40.43342099 -178.9278808 44.7849808 -198.29589844 50.40380859 C-200.25357289 50.97117362 -202.21275774 51.53333566 -204.17285156 52.09228516 C-254.79269137 66.57244537 -304.63125394 86.4820554 -350.36669922 112.68603516 C-353.21192454 114.30833589 -356.07579279 115.89448329 -358.94140625 117.48046875 C-371.74283459 124.63759486 -384.0605775 132.35302234 -396.25 140.5 C-396.93542877 140.95799988 -397.62085754 141.41599976 -398.32705688 141.88787842 C-426.54604137 160.79218375 -453.60914892 181.30138695 -478.7578125 204.16015625 C-480.71208424 205.92717199 -482.69059737 207.65663529 -484.6875 209.375 C-495.16581317 218.54352402 -505.14302568 228.23395181 -515 238.0625 C-515.88389404 238.94180176 -516.76778809 239.82110352 -517.6784668 240.72705078 C-522.09990734 245.15898558 -526.37922958 249.65096483 -530.45800781 254.40039062 C-532.69822373 256.99671433 -535.03767956 259.49071454 -537.375 262 C-541.6687538 266.64788542 -545.7353184 271.43166348 -549.703125 276.36328125 C-551.72558413 278.85008049 -553.79218554 281.29094567 -555.8828125 283.72045898 C-562.38556419 291.29268109 -568.46828479 299.1556584 -574.45947266 307.13671875 C-575.84535779 308.98163716 -577.24034052 310.81927475 -578.63671875 312.65625 C-603.01263345 345.02970833 -623.57334441 380.16546651 -642 416.1875 C-642.36931641 416.90421875 -642.73863281 417.6209375 -643.11914062 418.359375 C-664.98639091 460.83953999 -682.94358404 506.65447848 -694.25390625 553.13378906 C-695.05077478 556.39531773 -695.88372537 559.64648048 -696.71875 562.8984375 C-704.71476271 594.47632073 -710.22877902 626.45544588 -713.74285889 658.82952881 C-713.98919627 661.08843034 -714.24436591 663.34619449 -714.50048828 665.60400391 C-717.07990516 688.82187141 -717.26370569 712.04240912 -717.25 735.375 C-717.24979984 736.11666286 -717.24959969 736.85832573 -717.24939346 737.62246323 C-717.24033411 754.49361242 -717.16041687 771.34898599 -716 788.1875 C-715.87625 790.02066772 -715.87625 790.02066772 -715.75 791.89086914 C-711.82893829 844.34620883 -701.83399688 897.91367083 -685.12402344 947.82177734 C-684.29672314 950.29900626 -683.47724808 952.77808849 -682.66503906 955.26025391 C-671.01568366 990.80976332 -656.82929397 1024.78620036 -640 1058.1875 C-639.41444336 1059.35442383 -638.82888672 1060.52134766 -638.22558594 1061.72363281 C-631.07151486 1075.92095459 -623.41311009 1089.69916415 -615 1103.1875 C-614.227771 1104.42935059 -614.227771 1104.42935059 -613.43994141 1105.69628906 C-596.84656981 1132.32584979 -579.0442296 1158.02971581 -559 1182.1875 C-557.58318126 1183.93737688 -556.16651902 1185.68738049 -554.75 1187.4375 C-545.69463599 1198.49291832 -536.22104934 1209.15946889 -526.47070312 1219.60351562 C-525.00697331 1221.17998957 -523.55634339 1222.76751397 -522.109375 1224.359375 C-512.64158215 1234.75600549 -502.96989921 1245.18714381 -492.20703125 1254.26171875 C-489.62989956 1256.5104372 -487.15075601 1258.85040856 -484.66357422 1261.19775391 C-478.84437208 1266.68911367 -472.97530361 1272.00005168 -466.71875 1276.99609375 C-464.263882 1278.97480201 -461.8637926 1281.0058026 -459.47460938 1283.06298828 C-451.25194312 1290.12855773 -442.67028274 1296.68385405 -434 1303.1875 C-432.87416504 1304.03683105 -432.87416504 1304.03683105 -431.72558594 1304.90332031 C-419.45857934 1314.14401307 -406.88011843 1322.82442751 -394 1331.1875 C-393.21157715 1331.70022461 -392.4231543 1332.21294922 -391.61083984 1332.74121094 C-369.74123908 1346.90324016 -347.11707642 1359.58664062 -323.83850098 1371.26501465 C-322.62272059 1371.87504402 -321.40746032 1372.48611118 -320.19274902 1373.0982666 C-260.99670975 1402.92822983 -196.40420452 1424.23168235 -131 1435.1875 C-129.98502441 1435.35942871 -128.97004883 1435.53135742 -127.92431641 1435.70849609 C-120.2984641 1436.98284909 -112.657723 1438.12234388 -105 1439.1875 C-103.74864258 1439.36168457 -102.49728516 1439.53586914 -101.20800781 1439.71533203 C-51.54322573 1446.48668613 -0.40411397 1447.92291927 49.53662109 1443.49072266 C53.06028945 1443.18222159 56.58539172 1442.92322278 60.11328125 1442.66796875 C98.43300003 1439.66385415 137.71728992 1432.93217301 174.63110352 1422.14501953 C177.72717341 1421.26504373 180.827726 1420.47801352 183.95703125 1419.7265625 C190.97206639 1418.00210556 197.82264327 1415.80134369 204.6875 1413.5625 C205.69902634 1413.23386459 205.69902634 1413.23386459 206.73098755 1412.89859009 C248.8756572 1399.1867772 290.13219473 1382.59137185 329 1361.1875 C329.93263672 1360.67928711 330.86527344 1360.17107422 331.82617188 1359.64746094 C355.40895606 1346.77791194 377.97453233 1332.56146635 400 1317.1875 C400.69335449 1316.70410156 401.38670898 1316.22070312 402.10107422 1315.72265625 C410.0127644 1310.18748137 417.73539487 1304.42449619 425.34375 1298.48046875 C427.048816 1297.14939128 428.75863179 1295.82457817 430.46875 1294.5 C437.90736366 1288.71899315 445.1686436 1282.76261766 452.31738281 1276.62744141 C454.09902168 1275.10275974 455.8887341 1273.58794495 457.6796875 1272.07421875 C465.75891754 1265.22929002 465.75891754 1265.22929002 473.34155273 1257.8449707 C474.91776776 1256.26968382 476.54658114 1254.85256472 478.25390625 1253.421875 C484.47181358 1248.01465866 490.22198049 1242.11424369 496.03637695 1236.28149414 C498.05764268 1234.2548702 500.08419574 1232.23364453 502.11132812 1230.21289062 C508.2879319 1224.03947233 514.359941 1217.86144968 520 1211.1875 C521.61967817 1209.41179779 523.24411718 1207.64041693 524.875 1205.875 C529.79731083 1200.47609629 534.41762617 1194.87512948 539 1189.1875 C540.51955712 1187.33228728 542.04038903 1185.47811798 543.5625 1183.625 C545.04185957 1181.81265744 546.52103595 1180.00016533 548 1178.1875 C548.61101562 1177.44628906 549.22203125 1176.70507812 549.8515625 1175.94140625 C567.29497708 1154.52683133 583.11703586 1131.53567347 597.359375 1107.890625 C599.02832878 1105.14082497 600.72994146 1102.41346789 602.4375 1099.6875 C624.40214589 1064.29735353 642.52476307 1026.08040346 656.94775391 987.03417969 C657.91535947 984.4164811 658.89792132 981.80506342 659.88671875 979.1953125 C678.6703968 929.35131417 690.37371876 877.69432265 697.42663574 824.97924805 C697.63359996 823.43244636 697.84337595 821.88601666 698.0567627 820.34008789 C701.85756194 792.50311581 702.35800644 764.40070037 702.31567383 736.3503418 C702.3110435 733.03868013 702.31799178 729.72738599 702.33618164 726.41577148 C702.43404551 708.39669964 702.13245387 690.51324252 700.60546875 672.55078125 C700.54283655 671.81117849 700.48020435 671.07157574 700.41567421 670.30956078 C699.70407916 662.10737558 698.75644096 653.97028354 697.42912292 645.8427887 C696.8904544 642.50966348 696.50118753 639.16747859 696.125 635.8125 C694.84624637 625.19884485 692.94620131 614.69604458 691 604.1875 C690.79391113 603.06569336 690.58782227 601.94388672 690.37548828 600.78808594 C687.56479191 585.65615438 684.26787377 570.71506361 680.4375 555.8125 C680.25385895 555.09477417 680.0702179 554.37704834 679.88101196 553.63757324 C677.24371205 543.37975209 674.26193469 533.26331859 671 523.1875 C670.78411224 522.51958435 670.56822449 521.8516687 670.34579468 521.16351318 C668.79326495 516.37280485 667.21590703 511.59058966 665.625 506.8125 C665.38666443 506.09615387 665.14832886 505.37980774 664.902771 504.64175415 C661.25174789 493.69310275 657.42586901 482.85077959 653 472.1875 C652.63076416 471.29272949 652.26152832 470.39795898 651.88110352 469.47607422 C645.12803155 453.17701765 638.1494577 436.97954313 630.06738281 421.29150391 C628.86923137 418.92973147 627.71048899 416.55074619 626.5546875 414.16796875 C620.1477066 401.02142359 613.07376432 388.37759355 605.57470703 375.82421875 C604.20664696 373.53351351 602.84866234 371.237369 601.49609375 368.9375 C582.43683927 336.65515821 560.37141693 305.64541802 535.75 277.375 C533.15605078 274.39087457 530.6657745 271.33109802 528.1875 268.25 C525.22605643 264.6002209 522.16699414 261.22077001 518.77870178 257.96714783 C517.01607035 256.20357889 515.39787402 254.37450476 513.77905273 252.47875977 C510.07252628 248.21545817 506.15949881 244.20232434 502.16015625 240.21484375 C501.43436874 239.48809952 500.70858124 238.76135529 499.96080017 238.0125885 C498.43676444 236.48787704 496.91148431 234.9644085 495.38500977 233.44213867 C493.06867537 231.13116109 490.75772922 228.81489229 488.44726562 226.49804688 C486.95604966 225.0074918 485.46452347 223.517247 483.97265625 222.02734375 C483.29219742 221.34486069 482.61173859 220.66237762 481.91065979 219.95921326 C477.97980618 216.04720458 473.94633531 212.31104259 469.7432251 208.69261169 C467.34179025 206.61919749 465.01781117 204.46522914 462.6875 202.3125 C458.19986568 198.21992565 453.59069772 194.33479166 448.86328125 190.5234375 C446.3463676 188.47007548 443.87518043 186.37266362 441.41479492 184.25219727 C434.22057875 178.0686572 426.74214811 172.33485168 419.09472656 166.72460938 C417.71674865 165.71344982 416.34102671 164.69920744 414.96777344 163.68164062 C354.79470689 119.10686301 288.62272702 85.60549205 218 61.1875 C217.33460205 60.95611328 216.6692041 60.72472656 215.98364258 60.48632812 C182.17669116 48.73916363 147.42589084 40.58628276 112.17333984 34.55926514 C110.04722034 34.19557737 107.92204462 33.82671113 105.796875 33.45751953 C84.31677564 29.75683242 62.81040647 27.74566179 41.06838989 26.32852173 C39.15712769 26.19821288 37.24727589 26.04764194 35.33764648 25.89526367 C21.6398955 24.86859516 7.91602126 24.98858265 -5.8125 25 C-6.47794579 25.00026688 -7.14339157 25.00053375 -7.82900238 25.00080872 C-51.16069909 25.02262524 -93.34942259 28.45373282 -136 36.1875 Z " fill="#F8974B" transform="translate(847,100.8125)"/>
<path d="M0 0 C2.78894946 2.48011133 4.36993626 5.19814379 6.15234375 8.4609375 C6.75763916 9.56131348 7.36293457 10.66168945 7.98657227 11.79541016 C8.46333908 12.67027069 8.46333908 12.67027069 8.94973755 13.56280518 C10.63057365 16.64654508 12.328252 19.72100761 14.0234375 22.796875 C14.53364189 23.72429001 14.53364189 23.72429001 15.05415344 24.67044067 C18.0011344 30.02117049 21.01662342 35.33012411 24.0625 40.625 C28.42633329 48.22176597 32.72822873 55.85109058 37 63.5 C43.26242194 74.70791972 49.61311012 85.86267158 56 97 C58.62677914 101.58231646 61.25208512 106.16547084 63.875 110.75 C64.21380188 111.34214294 64.55260376 111.93428589 64.90167236 112.54437256 C70.31985448 122.0183792 75.67204316 131.52787168 80.99169922 141.05761719 C85.10196189 148.415046 89.26858061 155.73826203 93.46191406 163.04858398 C97.35222474 169.84117971 101.18291543 176.66602765 105 183.5 C109.80094212 192.09433579 114.64473154 200.66197667 119.54003906 209.20288086 C123.6798992 216.42850803 127.77699278 223.67773542 131.86791992 230.93115234 C135.83794335 237.96256089 139.84399746 244.97290155 143.85955811 251.97836304 C144.36220184 252.85532333 144.36220184 252.85532333 144.875 253.75 C145.21090149 254.33600983 145.54680298 254.92201965 145.8928833 255.52578735 C150.87730636 264.22712157 155.77630015 272.97207243 160.625 281.75 C165.86174802 291.22836355 171.24035896 300.60914051 176.73095703 309.94238281 C181.10309255 317.39921412 185.32407696 324.9317786 189.5 332.5 C194.24908912 341.10607738 199.08433989 349.64933461 204.0625 358.125 C206.37851371 362.08128856 208.69094274 366.03964731 211 370 C211.98371582 371.68657715 211.98371582 371.68657715 212.98730469 373.40722656 C214.98762264 376.84517281 216.96325783 380.29701173 218.9375 383.75 C219.55955322 384.81621582 220.18160645 385.88243164 220.82250977 386.98095703 C221.38510498 387.97208496 221.9477002 388.96321289 222.52734375 389.984375 C223.02999756 390.85803711 223.53265137 391.73169922 224.05053711 392.63183594 C225.15361408 395.38314647 225.06058569 396.28479977 224 399 C221.40343177 400.31233586 218.98684838 401.32328332 216.26171875 402.29296875 C215.45179474 402.5957373 214.64187073 402.89850586 213.80740356 403.21044922 C211.10583789 404.21708793 208.3967579 405.20177231 205.6875 406.1875 C203.77299998 406.89766047 201.85919186 407.60968874 199.94604492 408.32348633 C196.960849 409.43693397 193.97523494 410.54910075 190.98744202 411.65556335 C181.78052104 415.065707 172.62259523 418.59567018 163.47207642 422.15386963 C144.84972835 429.39134715 126.18683126 436.52203884 107.51852417 443.6399231 C92.36818378 449.41685673 77.2246402 455.21081863 62.09423828 461.03979492 C57.67075079 462.74349962 53.2446266 464.44004241 48.81591797 466.13012695 C39.76085181 469.59027645 30.73087799 473.07296489 21.796875 476.8359375 C20.45703747 477.38840782 19.11672702 477.93973301 17.77587891 478.48974609 C15.46664245 479.44500467 13.16976723 480.43123256 10.89208984 481.45947266 C2.28171707 484.97319771 -3.57997196 483.23739411 -12 480 C-13.69863055 479.3718478 -15.39754352 478.744459 -17.09667969 478.11767578 C-22.12573075 476.24069907 -27.13037702 474.30467635 -32.13085938 472.35302734 C-36.7086391 470.56639536 -41.2916657 468.79339659 -45.8742981 467.01925659 C-48.28234839 466.08679844 -50.69012122 465.15362347 -53.09762573 464.21975708 C-64.74236041 459.70426492 -76.40967504 455.24884877 -88.08099365 450.8026123 C-111.74536324 441.786689 -135.38707024 432.71246694 -159.01953125 423.61328125 C-159.99186203 423.23894455 -160.96419281 422.86460785 -161.96598816 422.47892761 C-167.23603421 420.44986537 -172.50559475 418.41955202 -177.7746582 416.38793945 C-191.46160507 411.10819028 -191.46160507 411.10819028 -205.19140625 405.94140625 C-206.27615234 405.53599609 -207.36089844 405.13058594 -208.47851562 404.71289062 C-210.6292016 403.91063981 -212.78312309 403.11703258 -214.93945312 402.33007812 C-215.99197266 401.93369141 -217.04449219 401.53730469 -218.12890625 401.12890625 C-219.04744385 400.78931885 -219.96598145 400.44973145 -220.91235352 400.09985352 C-223 399 -223 399 -224 396 C-222.92700195 393.51416016 -222.92700195 393.51416016 -221.23828125 390.5390625 C-220.62009521 389.43868652 -220.00190918 388.33831055 -219.36499023 387.20458984 C-218.68104601 386.01126758 -217.99687711 384.81807406 -217.3125 383.625 C-216.61640392 382.39453189 -215.92118049 381.16356972 -215.22680664 379.93212891 C-213.48385749 376.84707934 -211.72916476 373.76892451 -209.96911621 370.69360352 C-208.58310627 368.27144683 -207.20208788 365.84644923 -205.8203125 363.421875 C-204.37884686 360.89599073 -202.93538776 358.37132197 -201.48706055 355.84936523 C-197.64599382 349.15833052 -193.88041192 342.42690548 -190.125 335.6875 C-185.47014268 327.33804639 -180.71975493 319.05312993 -175.875 310.8125 C-170.92305538 302.38734498 -166.16976143 293.87879253 -161.53198242 285.27734375 C-157.8832296 278.54155479 -154.07239269 271.91454697 -150.1875 265.3125 C-144.55632498 255.74027918 -139.11802229 246.07462509 -133.74902344 236.35327148 C-129.21376636 228.15343781 -124.59997616 220.00281868 -119.9375 211.875 C-114.91016059 203.10989438 -109.9228961 194.32431055 -105 185.5 C-99.72055256 176.03782012 -94.36690337 166.62014192 -88.97949219 157.21923828 C-84.27343407 149.00506876 -79.61270491 140.76706246 -75 132.5 C-69.72048576 123.0378569 -64.36690377 113.62014261 -58.97949219 104.21923828 C-54.27343407 96.00506876 -49.61270491 87.76706246 -45 79.5 C-39.72312411 70.04258545 -34.37236151 60.62949144 -28.98754883 51.2333374 C-23.51938897 41.68919558 -18.12007468 32.10796646 -12.75732422 22.50415039 C-8.55212476 14.97520944 -4.30446195 7.47265289 0 0 Z " fill="#E68A49" transform="translate(839,389)"/>
<path d="M0 0 C3.56849623 1.42351145 4.83210573 2.89082917 6.59375 6.26953125 C7.06022949 7.14714111 7.52670898 8.02475098 8.00732422 8.92895508 C8.49990723 9.8805249 8.99249023 10.83209473 9.5 11.8125 C10.57363235 13.83433728 11.64920069 15.85514754 12.7265625 17.875 C13.2721582 18.90238281 13.81775391 19.92976563 14.37988281 20.98828125 C16.79511663 25.478083 19.32722618 29.89695559 21.875 34.3125 C26.30362127 42.01226198 30.66978753 49.7444663 35 57.5 C41.26228747 68.7079938 47.61311106 79.86267323 54 91 C56.62677914 95.58231646 59.25208512 100.16547084 61.875 104.75 C62.21380188 105.34214294 62.55260376 105.93428589 62.90167236 106.54437256 C68.31985448 116.0183792 73.67204316 125.52787168 78.99169922 135.05761719 C83.10196189 142.415046 87.26858061 149.73826203 91.46191406 157.04858398 C95.35222474 163.84117971 99.18291543 170.66602765 103 177.5 C107.80094212 186.09433579 112.64473154 194.66197667 117.54003906 203.20288086 C121.6798992 210.42850803 125.77699278 217.67773542 129.86791992 224.93115234 C133.83794335 231.96256089 137.84399746 238.97290155 141.85955811 245.97836304 C142.36220184 246.85532333 142.36220184 246.85532333 142.875 247.75 C143.21090149 248.33600983 143.54680298 248.92201965 143.8928833 249.52578735 C148.87730636 258.22712157 153.77630015 266.97207243 158.625 275.75 C163.86174802 285.22836355 169.24035896 294.60914051 174.73095703 303.94238281 C179.10309255 311.39921412 183.32407696 318.9317786 187.5 326.5 C192.24908912 335.10607738 197.08433989 343.64933461 202.0625 352.125 C204.37851371 356.08128856 206.69094274 360.03964731 209 364 C209.65581055 365.12438477 210.31162109 366.24876953 210.98730469 367.40722656 C212.98762264 370.84517281 214.96325783 374.29701173 216.9375 377.75 C217.55955322 378.81621582 218.18160645 379.88243164 218.82250977 380.98095703 C219.38510498 381.97208496 219.9477002 382.96321289 220.52734375 383.984375 C221.28132446 385.29486816 221.28132446 385.29486816 222.05053711 386.63183594 C223.15613369 389.3894309 223.08741105 390.28369605 222 393 C220.41934204 394.05047607 220.41934204 394.05047607 218.35400391 394.83105469 C217.58295319 395.13106384 216.81190247 395.431073 216.01748657 395.74017334 C215.17898163 396.04763489 214.34047668 396.35509644 213.4765625 396.671875 C212.19088882 397.16279633 212.19088882 397.16279633 210.87924194 397.66363525 C209.06452862 398.35327047 207.24692835 399.03534893 205.42675781 399.71044922 C202.63754224 400.74534639 199.8574271 401.80208422 197.078125 402.86328125 C195.31559331 403.52994049 193.55258733 404.1953474 191.7890625 404.859375 C190.95460602 405.17493347 190.12014954 405.49049194 189.26040649 405.81561279 C188.48305145 406.10301331 187.70569641 406.39041382 186.90478516 406.68652344 C186.22163239 406.94093201 185.53847961 407.19534058 184.83462524 407.4574585 C183 408 183 408 180 408 C180 407.34 180 406.68 180 406 C180.84304688 405.73445313 181.68609375 405.46890625 182.5546875 405.1953125 C184.19824219 404.66550781 184.19824219 404.66550781 185.875 404.125 C186.96554687 403.77695312 188.05609375 403.42890625 189.1796875 403.0703125 C192.08522723 402.18824769 192.08522723 402.18824769 194 400 C196.32948244 399.2767567 198.64498376 398.62556931 201 398 C203.63667515 397.22292309 206.25642253 396.39827127 208.875 395.5625 C209.55046875 395.35818359 210.2259375 395.15386719 210.921875 394.94335938 C212.64692351 394.38739495 214.3290945 393.70211366 216 393 C216.33 392.01 216.66 391.02 217 390 C216.10861328 389.76216797 216.10861328 389.76216797 215.19921875 389.51953125 C210.57666488 388.21831469 206.22344766 386.73305201 201.875 384.6875 C197.19680403 382.48874789 192.45940798 380.57074391 187.625 378.75 C186.94679199 378.49178467 186.26858398 378.23356934 185.56982422 377.9675293 C182.07323231 376.66509001 178.68616859 375.59775707 175 375 C175 374.34 175 373.68 175 373 C174.26894043 372.86948242 173.53788086 372.73896484 172.78466797 372.60449219 C170.19278392 372.04184929 167.90896361 371.29682947 165.4453125 370.328125 C164.59050293 369.99594971 163.73569336 369.66377441 162.85498047 369.3215332 C161.95408691 368.96792725 161.05319336 368.61432129 160.125 368.25 C152.68153178 365.36245875 145.24370862 362.66920927 137.6171875 360.30078125 C134.70469171 359.25341505 132.01782679 358.10606644 129.22265625 356.796875 C122.02016365 353.47194384 114.61355267 350.72213567 107.19351196 347.92834473 C102.55833188 346.182726 97.92799484 344.42432434 93.296875 342.66796875 C92.31290237 342.29515778 91.32892975 341.9223468 90.31513977 341.53823853 C78.29880923 336.98240773 66.30573381 332.36620962 54.3125 327.75 C52.23706569 326.95172815 50.16162635 326.15346941 48.08618164 325.35522461 C36.28278322 320.81352412 24.48587459 316.25519345 12.69213867 311.68847656 C11.25755871 311.1330589 9.8229757 310.57764911 8.38838959 310.02224731 C4.92555807 308.68158856 1.46276729 307.34082463 -2 306 C-1.89545159 267.16180669 -1.78568807 228.32363136 -1.66888306 189.48547289 C-1.65511269 184.90527306 -1.64138571 180.32507309 -1.62768555 175.74487305 C-1.62495724 174.83299785 -1.62222894 173.92112266 -1.61941796 172.98161488 C-1.57528517 158.19658476 -1.53467149 143.41154695 -1.49534739 128.62650336 C-1.45495039 113.46737036 -1.41079706 98.30825169 -1.36312145 83.14913982 C-1.33379801 73.78736805 -1.30744095 64.42559741 -1.28482103 55.063807 C-1.26905145 48.65309734 -1.24964913 42.24240524 -1.22733159 35.83171505 C-1.21454479 32.1273796 -1.20341566 28.42305776 -1.19658089 24.71870613 C-1.18914699 20.7121852 -1.17409208 16.70573036 -1.15821838 12.69923401 C-1.15724028 11.51540762 -1.15626217 10.33158123 -1.15525442 9.11188132 C-1.14977998 8.04745462 -1.14430554 6.98302792 -1.1386652 5.88634586 C-1.13600716 4.96020798 -1.13334911 4.03407009 -1.13061053 3.07986742 C-1 1 -1 1 0 0 Z " fill="#FBA24A" transform="translate(841,395)"/>
<path d="M0 0 C2.2542899 0.91561056 4.50902631 1.83012239 6.76416016 2.74365234 C7.93190979 3.21784607 9.09965942 3.69203979 10.30279541 4.18060303 C16.05683841 6.50102242 21.83579161 8.75658291 27.6171875 11.0078125 C28.76156281 11.45357635 29.90593811 11.89934021 31.08499146 12.35861206 C33.40434729 13.2613534 35.72391728 14.16354475 38.04370117 15.06518555 C41.58016494 16.44024398 45.11529884 17.8186844 48.65039062 19.19726562 C63.89776849 25.1389355 63.89776849 25.1389355 79.29077148 30.68847656 C82.39177428 31.80666777 85.35177547 33.14635495 88.34375 34.5234375 C94.40175941 37.15202945 100.66130758 39.32750879 106.85546875 41.61328125 C109.66921855 42.65161261 112.48149053 43.69381692 115.29296875 44.73828125 C116.52917969 45.19460938 117.76539063 45.6509375 119.0390625 46.12109375 C121.82144432 47.17711925 124.52603971 48.35280947 127.234375 49.5859375 C131.85126003 51.66410102 136.55980538 53.31326977 141.35546875 54.92578125 C148.68907557 57.43787194 155.87705465 60.17187427 163.01757812 63.1875 C167.93097517 65.25878769 172.88783512 67.10447548 177.94921875 68.7890625 C179.85546875 69.61328125 179.85546875 69.61328125 180.85546875 71.61328125 C179.1085408 72.28795687 177.3577835 72.95272281 175.60546875 73.61328125 C174.6309375 73.98453125 173.65640625 74.35578125 172.65234375 74.73828125 C169.85546875 75.61328125 169.85546875 75.61328125 165.85546875 75.61328125 C165.85546875 76.60328125 165.85546875 77.59328125 165.85546875 78.61328125 C141.05755509 88.22536483 116.23611516 97.77370819 91.38552856 107.24880981 C76.23134267 113.02720778 61.08394874 118.82262061 45.94970703 124.65307617 C41.52621954 126.35678087 37.10009535 128.05332366 32.67138672 129.7434082 C23.61632056 133.2035577 14.58634674 136.68624614 5.65234375 140.44921875 C4.31250622 141.00168907 2.97219577 141.55301426 1.63134766 142.10302734 C-0.6778888 143.05828592 -2.97476402 144.04451381 -5.25244141 145.07275391 C-13.86281418 148.58647896 -19.72450321 146.85067536 -28.14453125 143.61328125 C-29.8431618 142.98512905 -31.54207477 142.35774025 -33.24121094 141.73095703 C-38.270262 139.85398032 -43.27490827 137.9179576 -48.27539062 135.96630859 C-52.85317035 134.17967661 -57.43619695 132.40667784 -62.01882935 130.63253784 C-64.42687964 129.70007969 -66.83465247 128.76690472 -69.24215698 127.83303833 C-80.88689166 123.31754617 -92.55420629 118.86213002 -104.2255249 114.41589355 C-125.88849219 106.16248749 -147.53352008 97.86300339 -169.16796875 89.53515625 C-170.16460541 89.1516098 -171.16124207 88.76806335 -172.18807983 88.37289429 C-174.15418575 87.61556134 -176.11987215 86.85713828 -178.08511353 86.0975647 C-183.48905132 84.01061766 -188.90166453 81.9497723 -194.32568359 79.91552734 C-195.5173967 79.4654985 -196.7091098 79.01546967 -197.93693542 78.55180359 C-200.2446052 77.68079312 -202.55467259 76.81610159 -204.86738586 75.95857239 C-205.90590195 75.56514145 -206.94441803 75.17171051 -208.0144043 74.76635742 C-208.93400436 74.42239426 -209.85360443 74.07843109 -210.80107117 73.7240448 C-213.12481556 72.62262618 -214.4763748 71.5446184 -216.14453125 69.61328125 C-214.97615723 69.27369385 -214.97615723 69.27369385 -213.78417969 68.92724609 C-205.46454969 66.44671336 -197.44291208 63.48289305 -189.39453125 60.23828125 C-181.73324996 57.17857204 -174.07999241 54.14786126 -166.26953125 51.48828125 C-158.91491046 48.97860411 -151.75065392 46.061381 -144.59423828 43.03466797 C-139.13988908 40.75176475 -133.63671539 38.70071735 -128.0546875 36.7578125 C-119.90826249 33.92120458 -111.87047363 30.84643226 -103.84350586 27.68951416 C-99.94556616 26.15766973 -96.04286048 24.63804789 -92.140625 23.1171875 C-91.37148773 22.81725891 -90.60235046 22.51733032 -89.80990601 22.20831299 C-82.93077924 19.52694157 -76.04616581 16.86132397 -69.14453125 14.23828125 C-68.17314209 13.86340576 -67.20175293 13.48853027 -66.20092773 13.10229492 C-65.31606689 12.76818604 -64.43120605 12.43407715 -63.51953125 12.08984375 C-62.76414062 11.80189941 -62.00875 11.51395508 -61.23046875 11.21728516 C-59.14453125 10.61328125 -59.14453125 10.61328125 -55.14453125 10.61328125 C-55.14453125 9.95328125 -55.14453125 9.29328125 -55.14453125 8.61328125 C-53.90960937 8.18917969 -52.6746875 7.76507812 -51.40234375 7.328125 C-49.69118667 6.73631158 -47.98026704 6.14381136 -46.26953125 5.55078125 C-45.37218262 5.24076172 -44.47483398 4.93074219 -43.55029297 4.61132812 C-38.99693248 3.02184952 -34.48496087 1.37789738 -30.01953125 -0.4453125 C-29.2188623 -0.77072021 -28.41819336 -1.09612793 -27.59326172 -1.43139648 C-26.07658469 -2.05492635 -24.56484721 -2.69064974 -23.05908203 -3.34008789 C-22.3679834 -3.62360107 -21.67688477 -3.90711426 -20.96484375 -4.19921875 C-20.36945801 -4.45316406 -19.77407227 -4.70710937 -19.16064453 -4.96875 C-12.6221421 -6.32427388 -5.89836629 -2.43181758 0 0 Z " fill="#D56F4B" transform="translate(855.14453125,725.38671875)"/>
<path d="M0 0 C16.15889873 13.84083944 26.19907264 34.48100517 27.9921875 55.65234375 C29.4505978 82.07277875 23.44939121 105.22767355 6.6796875 125.96484375 C-5.04439907 138.54941374 -20.52421932 145.73670093 -37.0078125 149.65234375 C-37.76191406 149.843125 -38.51601563 150.03390625 -39.29296875 150.23046875 C-60.52272331 153.52948097 -74.75027283 147.28111358 -94.0078125 137.65234375 C-94.3378125 161.08234375 -94.6678125 184.51234375 -95.0078125 208.65234375 C-108.5378125 208.65234375 -122.0678125 208.65234375 -136.0078125 208.65234375 C-136.0078125 135.39234375 -136.0078125 62.13234375 -136.0078125 -13.34765625 C-126.0078125 -13.34765625 -126.0078125 -13.34765625 -122.2578125 -10.171875 C-121.14416565 -8.81733291 -120.06098178 -7.43723614 -119.0078125 -6.03515625 C-118.44964844 -5.34486328 -117.89148438 -4.65457031 -117.31640625 -3.94335938 C-115.0757962 -1.14934564 -112.99539222 1.67097418 -111.0078125 4.65234375 C-107.2882903 3.04318876 -104.54635369 0.6733709 -101.4453125 -1.91015625 C-70.48106585 -26.52727367 -30.35988377 -23.69648071 0 0 Z " fill="#323091" transform="translate(592.0078125,906.34765625)"/>
<path d="M0 0 C13.43087723 11.38005466 13.43087723 11.38005466 15.609375 18.2109375 C14.76375 19.17773438 13.918125 20.14453125 13.046875 21.140625 C7.44590037 27.56230374 1.90287383 33.9962432 -3.37109375 40.69140625 C-6.26097537 44.29677113 -9.26032225 47.80582646 -12.25439453 51.32470703 C-15.17092108 54.7570407 -18.0477045 58.21704414 -20.890625 61.7109375 C-24.19686574 65.7742423 -27.55878929 69.78393059 -30.953125 73.7734375 C-34.81831691 78.3182236 -38.58298102 82.92622459 -42.28515625 87.60546875 C-44.82755643 90.75163001 -47.45042183 93.82352157 -50.078125 96.8984375 C-53.74600604 101.19502672 -57.23027732 105.52490474 -60.390625 110.2109375 C-46.16083128 109.8737386 -32.95920613 108.94661082 -22.390625 98.2109375 C-19.6922904 94.73839719 -17.35735655 91.14440059 -15.390625 87.2109375 C-12.21776505 88.58275303 -10.43667532 90.05502508 -8.265625 92.7265625 C-5.49669491 96.00135481 -2.60183185 99.0294312 0.484375 102.0078125 C1.32355469 102.82121094 2.16273438 103.63460938 3.02734375 104.47265625 C4.77272386 106.15466401 6.5255555 107.82896837 8.28515625 109.49609375 C9.52845703 110.70845703 9.52845703 110.70845703 10.796875 111.9453125 C11.55355469 112.66944336 12.31023437 113.39357422 13.08984375 114.13964844 C14.609375 116.2109375 14.609375 116.2109375 14.45263672 118.33618164 C7.70582999 133.33581363 -10.63531129 142.26876357 -24.9921875 148.3046875 C-43.98035265 155.20947483 -66.53166864 153.95195276 -84.78442383 145.47509766 C-100.63607224 137.60892307 -113.67260086 126.76200758 -122.390625 111.2109375 C-122.92558594 110.27507812 -123.46054687 109.33921875 -124.01171875 108.375 C-134.73300642 88.42966184 -136.69872518 63.25473969 -130.77734375 41.4921875 C-123.9902765 19.38487226 -110.14586604 2.13073501 -89.8449707 -8.92602539 C-60.27491914 -24.32851079 -26.22396872 -20.10504269 0 0 Z " fill="#323091" transform="translate(1146.390625,962.7890625)"/>
<path d="M0 0 C43.89 0 87.78 0 133 0 C131.57430231 4.27709306 130.38334458 7.40152982 128.234375 11.2109375 C127.68120605 12.19602295 127.12803711 13.1811084 126.55810547 14.19604492 C125.96143066 15.2451001 125.36475586 16.29415527 124.75 17.375 C124.12883301 18.47626221 123.50766602 19.57752441 122.86767578 20.7121582 C118.03521991 29.25144498 113.08666936 37.72070541 108.11669922 46.18041992 C103.72625808 53.68183386 99.53033175 61.27447792 95.39794922 68.92041016 C90.09784115 78.7115975 84.54898186 88.34708364 79 98 C75.04 104.93 71.08 111.86 67 119 C100.165 119.495 100.165 119.495 134 120 C134 133.53 134 147.06 134 161 C89.78 161 45.56 161 0 161 C1.36187605 157.59530988 2.66349286 154.61565508 4.3984375 151.4375 C4.87144287 150.56939697 5.34444824 149.70129395 5.83178711 148.80688477 C6.34104736 147.88061279 6.85030762 146.95434082 7.375 146 C8.17466187 144.54001587 8.17466187 144.54001587 8.99047852 143.05053711 C13.54758751 134.76044153 18.22450114 126.54200301 22.9375 118.33984375 C26.12997999 112.78275375 29.28677828 107.2058473 32.4375 101.625 C32.97898682 100.6664209 33.52047363 99.7078418 34.07836914 98.72021484 C36.78300169 93.93098726 39.48459518 89.1400609 42.18359375 84.34765625 C50.36269962 69.84150642 58.67681002 55.42686264 67 41 C44.89 41 22.78 41 0 41 C0 27.47 0 13.94 0 0 Z " fill="#312F91" transform="translate(868,951)"/>
<path d="M0 0 C1.55074219 0.5259375 1.55074219 0.5259375 3.1328125 1.0625 C17.86126684 6.60009119 34.11340107 18.46162449 41 33 C39.78823107 37.31901658 36.00980396 40.24085748 32.8984375 43.296875 C32.30197418 43.89050842 31.70551086 44.48414185 31.0909729 45.09576416 C29.1903019 46.98526627 27.28278526 48.86768392 25.375 50.75 C24.08287532 52.03209065 22.79120324 53.31463761 21.5 54.59765625 C18.33855521 57.73708432 15.1709539 60.87017801 12 64 C9.9506641 61.29897176 8.098528 58.56868556 6.3125 55.6875 C0.69457297 47.27444671 -6.23719236 42.57607648 -15.75390625 39.41796875 C-25.22005162 37.65644257 -35.73440175 37.77483106 -44 43 C-45.010625 43.556875 -46.02125 44.11375 -47.0625 44.6875 C-57.09650249 52.58660834 -62.86825988 62.55216716 -64.71484375 75.19140625 C-65.86990996 86.5680173 -65.06577173 97.72863455 -58.25 107.375 C-51.59175371 115.28479634 -44.19219954 120.72617442 -34 123 C-20.17457143 123.96778 -9.54005097 123.00471654 1.4375 113.6875 C5.47522135 109.81232781 8.3263042 105.90177563 11 101 C17.74080425 106.52650334 23.8071129 112.69449559 29.9375 118.875 C31.01343727 119.95596274 32.08960731 121.03669383 33.16601562 122.1171875 C35.78003292 124.74212641 38.39088596 127.37018628 41 130 C39.15743233 135.12745303 36.50398042 138.03646793 32.6875 141.8125 C32.06375488 142.4305249 31.44000977 143.0485498 30.79736328 143.68530273 C14.80237719 159.08062827 -6.87207886 166.42615383 -28.8671875 166.2109375 C-51.25615494 165.35348768 -71.01199035 155.45074943 -86.61572266 139.51367188 C-98.36897137 126.66179497 -107.28113553 108.55227406 -108 91 C-108.0515625 89.85273437 -108.103125 88.70546875 -108.15625 87.5234375 C-108.86950044 63.69021856 -101.00612225 40.90120047 -85 23 C-84.26136719 22.16726563 -83.52273438 21.33453125 -82.76171875 20.4765625 C-61.55908497 -2.07943088 -29.27547025 -10.27683944 0 0 Z " fill="#323091" transform="translate(815,949)"/>
<path d="M0 0 C13.86 0 27.72 0 42 0 C42 74.25 42 148.5 42 225 C28.14 225 14.28 225 0 225 C0 150.75 0 76.5 0 0 Z " fill="#353393" transform="translate(1182,887)"/>
<path d="M0 0 C10.77781295 1.1148935 20.46507178 5.41568053 30.4375 9.375 C32.35445447 10.12735454 34.27186478 10.87854855 36.18969727 11.62866211 C39.23495937 12.82003846 42.2798541 14.01229097 45.323349 15.20817566 C56.55001396 19.61907066 67.80866946 23.94598963 79.06936646 28.269104 C82.34483483 29.52691567 85.61966781 30.78636642 88.89428711 32.04638672 C90.96988759 32.84473106 93.04548978 33.64307098 95.12109375 34.44140625 C96.12252914 34.82685608 97.12396454 35.21230591 98.15574646 35.60943604 C103.03571949 37.48556478 107.91954 39.35019666 112.81298828 41.19091797 C120.85922593 44.22158996 128.81860523 47.2584706 136.60107422 50.92675781 C140.9769754 52.88446813 145.51967992 54.35667463 150.0625 55.875 C160.15616505 59.31198507 170.09921933 63.04463194 180 67 C180 67.66 180 68.32 180 69 C181.36318359 69.11214844 181.36318359 69.11214844 182.75390625 69.2265625 C188.41850942 70.03843673 193.63119769 72.31632409 198.9375 74.375 C199.98357422 74.77460937 201.02964844 75.17421875 202.10742188 75.5859375 C204.14358363 76.36405588 206.17862334 77.14511826 208.21240234 77.92944336 C210.66892214 78.87285195 213.13092223 79.79857223 215.59765625 80.71484375 C218.17701637 81.68913707 220.58122126 82.68982818 223 84 C222.47265625 85.83203125 222.47265625 85.83203125 221 88 C218.44420059 89.07627875 216.08196694 89.92387027 213.4375 90.6875 C208.86257038 91.7346222 208.86257038 91.7346222 205 94 C199.20919657 94.36546964 194.81997695 93.59283335 189.4375 91.375 C188.40604858 90.97003296 188.40604858 90.97003296 187.35375977 90.55688477 C185.22966091 89.71914698 183.11412146 88.86257343 181 88 C172.2162442 84.43599108 163.47042444 81.05799727 154.4375 78.17578125 C151.57220276 77.19571935 148.82078393 76.10224113 146.04980469 74.88598633 C141.4461082 72.89613228 136.77910222 71.05553755 132.125 69.1875 C131.01817871 68.74317627 129.91135742 68.29885254 128.77099609 67.84106445 C121.75105086 65.04317161 114.69826625 62.42334233 107.54931641 59.97729492 C102.89842237 58.36904721 98.50037999 56.45181794 94.06176758 54.33984375 C90.56549921 52.80986043 87.00181755 51.55911731 83.39453125 50.32421875 C74.44057939 47.20898521 65.61244 43.80392418 56.79043579 40.33517456 C54.12507201 39.2879725 51.45766301 38.24612633 48.78979492 37.20532227 C40.61285085 34.01152 32.44925841 30.79074554 24.3203125 27.4765625 C23.0246399 26.95236091 21.72882788 26.42850374 20.43286133 25.9050293 C18.08384422 24.95284494 15.73957091 23.98884011 13.40112305 23.01098633 C12.36769775 22.59357178 11.33427246 22.17615723 10.26953125 21.74609375 C9.38885986 21.38185303 8.50818848 21.0176123 7.60083008 20.64233398 C2.35997173 19.34798513 -2.22184111 21.30931317 -7.09765625 23.21484375 C-8.22880859 23.65376953 -9.35996094 24.09269531 -10.52539062 24.54492188 C-11.69263672 25.00447266 -12.85988281 25.46402344 -14.0625 25.9375 C-15.23361328 26.39318359 -16.40472656 26.84886719 -17.61132812 27.31835938 C-23.65040168 29.65139207 -23.65040168 29.65139207 -29.62280273 32.14672852 C-32 33 -32 33 -36 33 C-36 33.66 -36 34.32 -36 35 C-36.88051025 35.28262695 -37.76102051 35.56525391 -38.66821289 35.85644531 C-47.95408897 38.888123 -57.05898941 42.2619508 -66.14465332 45.84585571 C-70.09702519 47.40440495 -74.0545718 48.94971758 -78.01171875 50.49609375 C-78.79116852 50.80097214 -79.57061829 51.10585052 -80.37368774 51.41996765 C-86.81334856 53.93554147 -93.27281965 56.39506895 -99.75 58.8125 C-101.15668945 59.3377124 -101.15668945 59.3377124 -102.59179688 59.87353516 C-106.41325875 61.2975956 -110.23652791 62.7167588 -114.06005859 64.13525391 C-124.84416133 68.13924414 -135.59073073 72.17557877 -146.2019043 76.61987305 C-151.44806863 78.80593423 -156.75731472 80.74328904 -162.125 82.61328125 C-167.92128387 84.6565644 -173.64156346 86.91161907 -179.36621094 89.14624023 C-183.65675666 90.80253516 -187.96600329 92.38134151 -192.33984375 93.8046875 C-193.119646 94.05976074 -193.89944824 94.31483398 -194.70288086 94.57763672 C-199.15248597 95.39577008 -202.91768632 93.64806672 -207 92 C-208.16144531 91.56300781 -209.32289063 91.12601563 -210.51953125 90.67578125 C-213.69073259 89.47670295 -216.84849079 88.24973641 -220 87 C-220 86.34 -220 85.68 -220 85 C-217.03 84.505 -217.03 84.505 -214 84 C-213.67 83.01 -213.34 82.02 -213 81 C-211.741875 81.103125 -210.48375 81.20625 -209.1875 81.3125 C-203.93263172 81.34575866 -200.1076692 79.53505323 -195.48046875 77.19140625 C-193.29310879 76.14078454 -191.366822 75.47998488 -189 75 C-189.66 74.34 -190.32 73.68 -191 73 C-187.80129399 70.86752933 -187.47699351 70.82950689 -183.9375 71.125 C-178.36649919 71.28993095 -173.97618537 69.3270679 -169 67 C-169.33 66.34 -169.66 65.68 -170 65 C-168.906875 65.103125 -167.81375 65.20625 -166.6875 65.3125 C-161.75321119 65.32993565 -158.12795912 63.45711119 -153.765625 61.3125 C-149.93801164 59.49600552 -146.04140254 58.25879751 -142 57 C-142.66 56.34 -143.32 55.68 -144 55 C-138.75117306 51.82307843 -133.98511371 51.34302035 -128 51 C-128 50.01 -128 49.02 -128 48 C-126.90300781 47.79503906 -125.80601562 47.59007812 -124.67578125 47.37890625 C-123.22135113 47.10678707 -121.76692422 46.83465075 -120.3125 46.5625 C-119.59126953 46.42779297 -118.87003906 46.29308594 -118.12695312 46.15429688 C-114.41311202 45.45901155 -110.70283746 44.75225298 -107 44 C-107 43.34 -107 42.68 -107 42 C-100.79139468 39.57187611 -94.57977092 37.15160476 -88.3659668 34.73681641 C-86.25165292 33.914087 -84.13804146 33.08955014 -82.02514648 32.26318359 C-78.99124258 31.07696348 -75.95488729 29.89722706 -72.91796875 28.71875 C-71.97100632 28.34689575 -71.02404388 27.9750415 -70.04838562 27.59191895 C-69.16769913 27.25156616 -68.28701263 26.91121338 -67.37963867 26.56054688 C-66.60464523 26.2585437 -65.82965179 25.95654053 -65.03117371 25.64538574 C-63 25 -63 25 -60 25 C-59.67 24.01 -59.34 23.02 -59 22 C-56.55859375 21.19140625 -56.55859375 21.19140625 -53.4375 20.5625 C-48.10191215 19.35707587 -43.74316821 17.66264215 -39 15 C-35.47274257 13.05180549 -33.05374365 12.81573892 -29 13 C-29 12.34 -29 11.68 -29 11 C-25.80588665 9.22379854 -22.74332703 8.37043503 -19.1875 7.5625 C-15.68624425 6.72441084 -12.39948623 5.87672187 -9.125 4.375 C-6.0326808 3.01437955 -3.33966827 2.40727662 0 2 C0 1.34 0 0.68 0 0 Z " fill="#F5794C" transform="translate(836,701)"/>
<path d="M0 0 C13.53 0 27.06 0 41 0 C41 53.13 41 106.26 41 161 C27.47 161 13.94 161 0 161 C0 107.87 0 54.74 0 0 Z " fill="#312F90" transform="translate(644,951)"/>
<path d="M0 0 C8.32027497 6.78893602 13.22834529 14.73083786 15.6875 25.1875 C17.17133006 40.76446165 15.73369536 54.14567662 5.8828125 66.77734375 C-0.90765436 74.23235808 -10.20811618 78.64420984 -20.21875 79.53515625 C-32.85002006 79.99091602 -42.61318101 77.59901025 -52.3125 69.1875 C-61.07074308 60.01060286 -65.15095619 49.03057674 -65.625 36.4375 C-65.24710453 22.29976349 -60.81341716 10.69832645 -50.52734375 0.9453125 C-36.4497647 -10.22736929 -14.53295954 -10.17034504 0 0 Z " fill="#FEFDFE" transform="translate(562.3125,935.8125)"/>
<path d="M0 0 C6.42502477 4.23467542 10.76389981 9.590986 13 17 C14.33225077 26.70302994 12.40552167 33.64846595 7.25 41.75 C1.06123435 47.93876565 -6.0457811 51.01561184 -14.75 51.4375 C-22.30799784 51.26912876 -27.67545003 48.97906863 -33.29296875 43.9453125 C-39.16981296 37.7580339 -41.98977351 32.25559764 -42.5625 23.75 C-42.31664564 15.71503255 -38.60108475 8.01753123 -32.75 2.5 C-22.28883269 -5.28826993 -11.38769932 -6.1897656 0 0 Z " fill="#333191" transform="translate(679,884)"/>
<path d="M0 0 C0.86238281 -0.00773438 1.72476562 -0.01546875 2.61328125 -0.0234375 C3.43699219 -0.02085937 4.26070312 -0.01828125 5.109375 -0.015625 C5.85670898 -0.01336914 6.60404297 -0.01111328 7.37402344 -0.00878906 C9.25 0.25 9.25 0.25 11.25 2.25 C2.95472528 13.34943824 -5.37902734 24.41694022 -13.80737305 35.41577148 C-17.17885452 39.82819631 -20.50641379 44.26556839 -23.765625 48.76171875 C-24.40491943 49.64206787 -25.04421387 50.52241699 -25.70288086 51.42944336 C-26.91607984 53.10645164 -28.12294075 54.78806878 -29.32250977 56.47485352 C-30.1315979 57.59331665 -30.1315979 57.59331665 -30.95703125 58.734375 C-31.4260083 59.39147461 -31.89498535 60.04857422 -32.37817383 60.72558594 C-33.75 62.25 -33.75 62.25 -36.75 63.25 C-39.54213494 56.78487802 -40.05171783 50.57208496 -40.0625 43.625 C-40.06765625 42.82602295 -40.0728125 42.0270459 -40.078125 41.20385742 C-39.9415745 29.37882787 -35.85525663 18.78738379 -27.7734375 10.0703125 C-19.50903087 2.63553742 -10.8961468 -0.09950819 0 0 Z " fill="#FCFBFD" transform="translate(1094.75,986.75)"/>
<path d="M0 0 C22.44 0 44.88 0 68 0 C68 13.53 68 27.06 68 41 C23.78 41 -20.44 41 -66 41 C-65.67 40.01 -65.34 39.02 -65 38 C-0.155 38.495 -0.155 38.495 66 39 C66 26.46 66 13.92 66 1 C44.22 1 22.44 1 0 1 C0 0.67 0 0.34 0 0 Z " fill="#504D95" transform="translate(934,1071)"/>
<path d="M0 0 C43.89 0 87.78 0 133 0 C132.34 1.32 131.68 2.64 131 4 C131 3.34 131 2.68 131 2 C88.1 2 45.2 2 1 2 C1 14.54 1 27.08 1 40 C22.78 40 44.56 40 67 40 C67 40.33 67 40.66 67 41 C44.89 41 22.78 41 0 41 C0 27.47 0 13.94 0 0 Z " fill="#545197" transform="translate(868,951)"/>
<path d="M0 0 C7.88432568 -0.0231793 15.7686371 -0.0409436 23.65298843 -0.05181217 C27.31408136 -0.05702876 30.97515096 -0.06410421 34.63623047 -0.07543945 C38.16995218 -0.0863118 41.70365146 -0.09228607 45.23738861 -0.09487724 C47.24039958 -0.09762169 49.24340154 -0.10542683 51.24639893 -0.11329651 C53.07784454 -0.11340981 53.07784454 -0.11340981 54.94628906 -0.11352539 C56.02106506 -0.115746 57.09584106 -0.11796661 58.20318604 -0.12025452 C60.6670284 -0.01431677 62.64098821 0.35183409 65 1 C67.64828467 1.17844057 70.28663686 1.32242423 72.9375 1.4375 C80.40396359 1.81038023 87.63493163 2.6806921 95 4 C95 4.33 95 4.66 95 5 C92.33315603 4.87819703 89.66654731 4.75307277 87 4.625 C86.1119165 4.58246094 85.22383301 4.53992188 84.30883789 4.49609375 C78.88757476 4.22578399 73.47330162 3.90365243 68.05859375 3.5234375 C45.38287491 1.95202916 22.72347364 1.39678979 0 1 C0 0.67 0 0.34 0 0 Z " fill="#ECA268" transform="translate(827,125)"/>
<path d="M0 0 C0.66 0.33 1.32 0.66 2 1 C0.04761147 3.00612399 -1.91137822 5.00492433 -3.875 7 C-4.43058594 7.57234375 -4.98617187 8.1446875 -5.55859375 8.734375 C-7.00134404 10.19450782 -8.4974374 11.60149298 -10 13 C-10.66 13 -11.32 13 -12 13 C-12.27041107 13.59572815 -12.54082214 14.1914563 -12.81942749 14.80523682 C-13.99017019 16.98172573 -15.14318823 18.38542137 -16.88916016 20.11621094 C-17.4696109 20.69651062 -18.05006165 21.2768103 -18.64810181 21.87469482 C-19.27211884 22.48838928 -19.89613586 23.10208374 -20.5390625 23.734375 C-21.17991791 24.37240051 -21.82077332 25.01042603 -22.48104858 25.66778564 C-24.52437821 27.69994069 -26.57455982 29.72502218 -28.625 31.75 C-30.0134786 33.1284453 -31.4015049 34.50734636 -32.7890625 35.88671875 C-36.18748697 39.26311894 -39.59207254 42.63319288 -43 46 C-43.66 45.67 -44.32 45.34 -45 45 C-37.89491094 36.94303297 -30.39930404 29.28821956 -22.8125 21.6875 C-22.10368683 20.97494049 -22.10368683 20.97494049 -21.3805542 20.24798584 C-16.27127795 15.11659821 -11.12668597 10.09212534 -5.61401367 5.39355469 C-3.64211417 3.69099798 -1.80372517 1.87888039 0 0 Z " fill="#FEF2DF" transform="translate(364,308)"/>
<path d="M0 0 C2.96828429 3.35128872 4.29795092 5.60295579 5 10 C-3.81308615 13.70954048 -12.67003386 17.29774689 -21.5625 20.8125 C-22.506698 21.18991333 -22.506698 21.18991333 -23.4699707 21.57495117 C-25.31265303 22.31140822 -27.15823907 23.04058693 -29.00390625 23.76953125 C-30.62534546 24.41305542 -30.62534546 24.41305542 -32.27954102 25.06958008 C-35 26 -35 26 -38 26 C-38 25.34 -38 24.68 -38 24 C-37.15695312 23.73445312 -36.31390625 23.46890625 -35.4453125 23.1953125 C-34.34960938 22.84210937 -33.25390625 22.48890625 -32.125 22.125 C-31.03445313 21.77695312 -29.94390625 21.42890625 -28.8203125 21.0703125 C-25.91477277 20.18824769 -25.91477277 20.18824769 -24 18 C-21.67051756 17.2767567 -19.35501624 16.62556931 -17 16 C-14.36332485 15.22292309 -11.74357747 14.39827127 -9.125 13.5625 C-8.44953125 13.35818359 -7.7740625 13.15386719 -7.078125 12.94335938 C-5.35307649 12.38739495 -3.6709055 11.70211366 -2 11 C-1.67 10.01 -1.34 9.02 -1 8 C-1.67546875 7.81824219 -2.3509375 7.63648438 -3.046875 7.44921875 C-3.93890625 7.19785156 -4.8309375 6.94648437 -5.75 6.6875 C-6.63171875 6.44386719 -7.5134375 6.20023438 -8.421875 5.94921875 C-11.05772505 4.97874669 -12.85407326 3.78994356 -15 2 C-10.69466315 2 -8.21751795 2.91299282 -4.25 4.5 C-3.07953125 4.9640625 -1.9090625 5.428125 -0.703125 5.90625 C0.18890625 6.2671875 1.0809375 6.628125 2 7 C1.505 6.1028125 1.505 6.1028125 1 5.1875 C0 3 0 3 0 0 Z " fill="#E3AE6C" transform="translate(1059,777)"/>
<path d="M0 0 C0.33 0 0.66 0 1 0 C1.11432848 5.37343833 0.92249238 10.69282159 0 16 C-0.33 16.33 -0.66 16.66 -1 17 C-1.27219283 18.40096516 -1.49032664 19.81254689 -1.68359375 21.2265625 C-1.80669922 22.09410156 -1.92980469 22.96164062 -2.05664062 23.85546875 C-2.30731114 25.67829333 -2.55732871 27.50120785 -2.80664062 29.32421875 C-3.35270363 33.16646515 -3.94001625 36.79404819 -5.02734375 40.52734375 C-6.27279811 44.97396594 -6.69942886 49.35040119 -7.125 53.9375 C-7.21136719 54.81212891 -7.29773438 55.68675781 -7.38671875 56.58789062 C-7.59689697 58.72470254 -7.79925518 60.86228122 -8 63 C-8.66 63 -9.32 63 -10 63 C-10.1128603 57.58120103 -9.76197621 52.6276095 -8.828125 47.265625 C-8.70561371 46.5531813 -8.58310242 45.84073761 -8.45687866 45.10670471 C-8.06146907 42.81987517 -7.65612385 40.53494885 -7.25 38.25 C-6.97544925 36.67803079 -6.70119921 35.10600902 -6.42724609 33.53393555 C-4.4616926 22.32016734 -2.35245105 11.13954764 0 0 Z " fill="#E68144" transform="translate(211,692)"/>
<path d="M0 0 C0 3.98220896 -1.32208355 4.80602572 -4 7.6875 C-4.81984375 8.57179688 -5.6396875 9.45609375 -6.484375 10.3671875 C-9.93043526 13.97377852 -13.43780726 17.50842342 -17 21 C-18.299375 22.299375 -18.299375 22.299375 -19.625 23.625 C-22.41666667 26.41666667 -25.20833333 29.20833333 -28 32 C-28.66 31.67 -29.32 31.34 -30 31 C-24.08770644 23.93589348 -17.59548778 17.47957912 -11.0625 11 C-9.98609346 9.92862113 -8.90991986 8.85700818 -7.83398438 7.78515625 C-5.22533255 5.18740362 -2.61355529 2.59282038 0 0 Z " fill="#F0A061" transform="translate(333,303)"/>
<path d="M0 0 C0.66 0.33 1.32 0.66 2 1 C-6.40837653 10.27077413 -15.09112689 19.20973615 -24 28 C-24.99 27.67 -25.98 27.34 -27 27 C-18.09 18.09 -9.18 9.18 0 0 Z " fill="#FEEEDD" transform="translate(458,424)"/>
<path d="M0 0 C-6.20623484 2.45250403 -12.41805977 4.89040086 -18.6340332 7.31811523 C-20.74896429 8.14612075 -22.86258155 8.97749015 -24.97485352 9.81225586 C-28.00720427 11.0099668 -31.04403864 12.19559169 -34.08203125 13.37890625 C-35.02899368 13.75592178 -35.97595612 14.13293732 -36.95161438 14.52137756 C-38.27264412 15.03202003 -38.27264412 15.03202003 -39.62036133 15.55297852 C-40.39535477 15.8572023 -41.17034821 16.16142609 -41.96882629 16.47486877 C-44 17 -44 17 -47 16 C-45.27149655 15.20688633 -43.54216646 14.4155741 -41.8125 13.625 C-40.84957031 13.18414063 -39.88664063 12.74328125 -38.89453125 12.2890625 C-34.33043632 10.25646961 -29.73866161 8.57762051 -25 7 C-22.30418283 6.02197614 -19.62066742 5.01213785 -16.9375 4 C-16.24333984 3.73960937 -15.54917969 3.47921875 -14.83398438 3.2109375 C-14.15529297 2.95570313 -13.47660156 2.70046875 -12.77734375 2.4375 C-12.12491699 2.19386719 -11.47249023 1.95023438 -10.80029297 1.69921875 C-9.26327614 1.10225426 -7.75462063 0.43311323 -6.25390625 -0.25 C-3.65722685 -1.1140597 -2.56461765 -0.75439836 0 0 Z " fill="#CF9C68" transform="translate(1021,804)"/>
<path d="M0 0 C2.88329583 3.255334 4.63331529 5.59978344 5 10 C4 11 4 11 1.4375 11.0625 C0.633125 11.041875 -0.17125 11.02125 -1 11 C-1 10.01 -1 9.02 -1 8 C-1.67546875 7.81824219 -2.3509375 7.63648438 -3.046875 7.44921875 C-3.93890625 7.19785156 -4.8309375 6.94648437 -5.75 6.6875 C-6.63171875 6.44386719 -7.5134375 6.20023438 -8.421875 5.94921875 C-11.05772505 4.97874669 -12.85407326 3.78994356 -15 2 C-10.69466315 2 -8.21751795 2.91299282 -4.25 4.5 C-2.49429687 5.19609375 -2.49429687 5.19609375 -0.703125 5.90625 C0.18890625 6.2671875 1.0809375 6.628125 2 7 C1.67 6.401875 1.34 5.80375 1 5.1875 C0 3 0 3 0 0 Z " fill="#FCBE61" transform="translate(1059,777)"/>
<path d="M0 0 C0.33 0 0.66 0 1 0 C0.7278889 4.66641597 0.44159859 9.33149797 0.13232422 13.99560547 C0.02281876 15.6543505 -0.08112051 17.31346194 -0.18359375 18.97265625 C-0.62593705 24.66895465 -1.9525912 29.66901104 -4 35 C-5.40990122 31.10884405 -4.67879601 27.84454213 -4.00390625 23.828125 C-3.83531349 22.8044986 -3.83531349 22.8044986 -3.66331482 21.76019287 C-3.30390763 19.5887945 -2.93337159 17.41946661 -2.5625 15.25 C-2.31632003 13.77486243 -2.07086896 12.29960302 -1.82617188 10.82421875 C-1.22588786 7.21469558 -0.61561135 3.60694447 0 0 Z " fill="#EDA56C" transform="translate(1542,936)"/>
<path d="M0 0 C2.95764503 4.43646755 3.15958524 7.57010784 3.1875 12.8125 C3.20167969 14.01519531 3.21585938 15.21789062 3.23046875 16.45703125 C3.00124672 19.98083425 2.27030979 22.72129528 1 26 C0.67 26 0.34 26 0 26 C0 17.42 0 8.84 0 0 Z " fill="#EC8F53" transform="translate(879,220)"/>
<path d="M0 0 C11.2197419 0.43791725 21.98505085 1.83245431 33 4 C33 4.33 33 4.66 33 5 C29.6871348 4.86179731 26.37482011 4.71316222 23.0625 4.5625 C22.11697266 4.52318359 21.17144531 4.48386719 20.19726562 4.44335938 C18.84858398 4.38051758 18.84858398 4.38051758 17.47265625 4.31640625 C16.64000244 4.27974854 15.80734863 4.24309082 14.94946289 4.20532227 C13 4 13 4 12 3 C9.98688551 2.60430892 7.96402792 2.25747809 5.9375 1.9375 C4.28041016 1.67259766 4.28041016 1.67259766 2.58984375 1.40234375 C1.73519531 1.26957031 0.88054688 1.13679688 0 1 C0 0.67 0 0.34 0 0 Z " fill="#EEA469" transform="translate(931,107)"/>
<path d="M0 0 C10.18886891 0.51387339 19.9939515 2.09465663 30 4 C30 4.33 30 4.66 30 5 C26.85378318 4.86177801 23.70814434 4.71314916 20.5625 4.5625 C19.66466797 4.52318359 18.76683594 4.48386719 17.84179688 4.44335938 C16.98779297 4.40146484 16.13378906 4.35957031 15.25390625 4.31640625 C14.46314697 4.27974854 13.6723877 4.24309082 12.85766602 4.20532227 C11 4 11 4 10 3 C7.68047431 2.71898054 5.36114486 2.55217375 3.03125 2.37890625 C2.3609375 2.25386719 1.690625 2.12882812 1 2 C0.67 1.34 0.34 0.68 0 0 Z " fill="#EDA56B" transform="translate(712,1535)"/>
<path d="M0 0 C8.14735607 -0.28587214 15.94659988 0.84066438 24 2 C26.66536218 2.34550991 29.33225705 2.6733376 32 3 C32 3.33 32 3.66 32 4 C21.25037793 4.22291843 10.35883759 4.10765128 0 1 C0 0.67 0 0.34 0 0 Z " fill="#EC9F61" transform="translate(743,1540)"/>
<path d="M0 0 C7.30191376 0.60030831 14.42867584 1.70298082 21.625 3.0625 C22.62917969 3.24876953 23.63335938 3.43503906 24.66796875 3.62695312 C27.11268755 4.08097233 29.55664548 4.53870544 32 5 C32 5.33 32 5.66 32 6 C27.33163132 5.68789 22.66555467 5.35165009 18 5 C17.13632812 4.93941406 16.27265625 4.87882812 15.3828125 4.81640625 C9.94005915 4.34186014 5.1068258 2.919587 0 1 C0 0.67 0 0.34 0 0 Z " fill="#E58043" transform="translate(722,1385)"/>
<path d="M0 0 C0.33 0.66 0.66 1.32 1 2 C0.07421875 3.9453125 0.07421875 3.9453125 -1.3125 6.125 C-1.76238281 6.84945313 -2.21226563 7.57390625 -2.67578125 8.3203125 C-3.11277344 8.87460938 -3.54976562 9.42890625 -4 10 C-4.66 10 -5.32 10 -6 10 C-6.226875 10.53625 -6.45375 11.0725 -6.6875 11.625 C-8.43382056 14.78500863 -10.6402849 17.2676983 -13 20 C-13.66 19.67 -14.32 19.34 -15 19 C-14.61666504 18.53102295 -14.23333008 18.0620459 -13.83837891 17.57885742 C-12.09919856 15.44953377 -10.36207968 13.31853763 -8.625 11.1875 C-8.02171875 10.44951172 -7.4184375 9.71152344 -6.796875 8.95117188 C-6.21679688 8.23896484 -5.63671875 7.52675781 -5.0390625 6.79296875 C-4.50490723 6.1383667 -3.97075195 5.48376465 -3.42041016 4.80932617 C-2.20566898 3.26198226 -1.09120531 1.63680796 0 0 Z " fill="#E87E3E" transform="translate(1285,1177)"/>
<path d="M0 0 C-1.65 0.66 -3.3 1.32 -5 2 C-5 2.66 -5 3.32 -5 4 C-4.30132813 4.10957031 -3.60265625 4.21914063 -2.8828125 4.33203125 C-1.97273437 4.49058594 -1.06265625 4.64914062 -0.125 4.8125 C0.77992188 4.96332031 1.68484375 5.11414063 2.6171875 5.26953125 C5 6 5 6 7 9 C0.99522721 8.35083537 -4.400781 6.14204997 -10 4 C-10 3.34 -10 2.68 -10 2 C-8.71211992 1.46987262 -7.41953322 0.9511671 -6.125 0.4375 C-5.40570312 0.14746094 -4.68640625 -0.14257812 -3.9453125 -0.44140625 C-2 -1 -2 -1 0 0 Z " fill="#E25B4F" transform="translate(626,784)"/>
<path d="M0 0 C0 3.4093129 -0.36466616 3.8065568 -2.484375 6.28515625 C-3.00773437 6.89810547 -3.53109375 7.51105469 -4.0703125 8.14257812 C-4.62460937 8.77615234 -5.17890625 9.40972656 -5.75 10.0625 C-6.55824219 11.01866211 -6.55824219 11.01866211 -7.3828125 11.99414062 C-10.08810001 15.12501605 -12.16425225 17.29976087 -16 19 C-13.01198105 14.22787265 -9.61334123 10.21015987 -5.75 6.125 C-4.91855469 5.23554688 -4.91855469 5.23554688 -4.0703125 4.328125 C-2.71734496 2.88184935 -1.35920496 1.44041532 0 0 Z " fill="#EE9F60" transform="translate(299,338)"/>
<path d="M0 0 C0.33 0.66 0.66 1.32 1 2 C-1.45331849 7.49543342 -4.48415238 12.58043444 -7.6328125 17.703125 C-8.85990118 19.76463397 -9.95945627 21.83963302 -11 24 C-11.66 24 -12.32 24 -13 24 C-11.71075644 20.59797567 -10.2347924 17.49435446 -8.3984375 14.35546875 C-7.90859375 13.51435547 -7.41875 12.67324219 -6.9140625 11.80664062 C-6.40617188 10.94232422 -5.89828125 10.07800781 -5.375 9.1875 C-4.859375 8.30384766 -4.34375 7.42019531 -3.8125 6.50976562 C-2.54468886 4.33805211 -1.27377652 2.1682182 0 0 Z " fill="#47448E" transform="translate(891,1070)"/>
<path d="M0 0 C0.33 0.66 0.66 1.32 1 2 C-0.65971912 4.37102732 -2.32011732 6.74152871 -3.984375 9.109375 C-5.32134503 11.02673512 -6.64447597 12.95382444 -7.953125 14.890625 C-8.56671875 15.79296875 -9.1803125 16.6953125 -9.8125 17.625 C-10.65748047 18.88183594 -10.65748047 18.88183594 -11.51953125 20.1640625 C-12.00808594 20.76992187 -12.49664063 21.37578125 -13 22 C-13.66 22 -14.32 22 -15 22 C-13.58590784 18.9808834 -11.92284385 16.36468763 -9.9609375 13.671875 C-9.38085938 12.87265625 -8.80078125 12.0734375 -8.203125 11.25 C-7.59984375 10.425 -6.9965625 9.6 -6.375 8.75 C-5.76398438 7.90953125 -5.15296875 7.0690625 -4.5234375 6.203125 C-3.01824567 4.13348624 -1.51035798 2.06587006 0 0 Z " fill="#EEA46A" transform="translate(1421,1243)"/>
<path d="M0 0 C0.33 0 0.66 0 1 0 C0.40546697 17.85649203 0.40546697 17.85649203 -3 26 C-4.09964408 22.64283117 -3.88421538 20.24500139 -3.22265625 16.796875 C-3.03896484 15.8171875 -2.85527344 14.8375 -2.66601562 13.828125 C-2.46685547 12.81234375 -2.26769531 11.7965625 -2.0625 10.75 C-1.86720703 9.71875 -1.67191406 8.6875 -1.47070312 7.625 C-0.98796618 5.08180048 -0.49747983 2.54034954 0 0 Z " fill="#E68144" transform="translate(1393,929)"/>
<path d="M0 0 C0.33 0.66 0.66 1.32 1 2 C0.08239669 4.03911848 -0.94408082 6.02895087 -2 8 C-2.85713201 9.72769869 -3.71112374 11.45695774 -4.5625 13.1875 C-5.9258251 15.95237426 -7.28455406 18.42683109 -9 21 C-9.66 21 -10.32 21 -11 21 C-9.3003494 16.26525903 -6.86340973 12.03832889 -4.375 7.6875 C-3.95476563 6.94693359 -3.53453125 6.20636719 -3.1015625 5.44335938 C-2.07051505 3.62730989 -1.03563954 1.81343467 0 0 Z " fill="#DEA065" transform="translate(648,727)"/>
<path d="M0 0 C0.33 0.66 0.66 1.32 1 2 C-2.72346836 6.42094803 -6.29521038 10.57833482 -11 14 C-11.66 13.67 -12.32 13.34 -13 13 C-8.71 8.71 -4.42 4.42 0 0 Z " fill="#EFA164" transform="translate(1347,1332)"/>
<path d="M0 0 C0.33 0 0.66 0 1 0 C1.54611751 6.28035136 0.02807569 11.46034313 -3 17 C-3.99 17.66 -4.98 18.32 -6 19 C-4.3186083 12.51292846 -2.46937673 6.2322365 0 0 Z " fill="#F0A569" transform="translate(148,586)"/>
<path d="M0 0 C0 3 0 3 -1.37695312 4.62573242 C-2.31958008 5.4819519 -2.31958008 5.4819519 -3.28125 6.35546875 C-4.29638672 7.28842773 -4.29638672 7.28842773 -5.33203125 8.24023438 C-6.04746094 8.88283203 -6.76289062 9.52542969 -7.5 10.1875 C-8.57314453 11.16879883 -8.57314453 11.16879883 -9.66796875 12.16992188 C-11.43883905 13.78731675 -13.21625018 15.39683903 -15 17 C-15.66 16.67 -16.32 16.34 -17 16 C-11.5184171 10.41915303 -6.03331362 4.98404168 0 0 Z " fill="#FEF3DE" transform="translate(1345,1369)"/>
<path d="M0 0 C0.33 0.66 0.66 1.32 1 2 C0.48050781 2.64066406 -0.03898437 3.28132813 -0.57421875 3.94140625 C-3.7910981 7.93128803 -6.98099936 11.8926327 -9.875 16.125 C-10.57625 17.07375 -11.2775 18.0225 -12 19 C-12.66 19 -13.32 19 -14 19 C-12.47723638 15.60125441 -10.47613999 12.94153746 -8.125 10.0625 C-7.44695312 9.22847656 -6.76890625 8.39445312 -6.0703125 7.53515625 C-5.04550781 6.28025391 -5.04550781 6.28025391 -4 5 C-2.66497731 3.33468623 -1.33114831 1.66841234 0 0 Z " fill="#EEA76E" transform="translate(275,365)"/>
<path d="M0 0 C0.33 0 0.66 0 1 0 C1.22262303 6.7281627 0.95021536 12.53991163 -1 19 C-1.66 19 -2.32 19 -3 19 C-2.37679879 12.56025419 -1.35991738 6.32427599 0 0 Z " fill="#FCE3CA" transform="translate(1472,959)"/>
<path d="M0 0 C1.31048494 4.59169914 1.14104607 8.6158631 -0.9609375 13.0078125 C-1.92675622 14.69970771 -2.95843407 16.35365385 -4 18 C-5.68550367 14.62899267 -3.68863036 11.27985368 -2.5625 7.875 C-2.19801758 6.74384766 -2.19801758 6.74384766 -1.82617188 5.58984375 C-1.22404181 3.72442121 -0.61286537 1.86192317 0 0 Z " fill="#EFA970" transform="translate(141,606)"/>
<path d="M0 0 C0.33 0 0.66 0 1 0 C0.85936865 2.29199177 0.71234057 4.58359186 0.5625 6.875 C0.48128906 8.15117188 0.40007813 9.42734375 0.31640625 10.7421875 C0 14 0 14 -1 16 C-1.66 16 -2.32 16 -3 16 C-2.52013969 10.43109483 -1.70084819 5.32932432 0 0 Z " fill="#4E4B94" transform="translate(1017,1000)"/>
<path d="M0 0 C0.66 0 1.32 0 2 0 C2.22786458 2.05078125 2.45572917 4.1015625 2.68359375 6.15234375 C2.81886614 8.01140229 2.81886614 8.01140229 4 9 C4.07179964 10.51928038 4.08392007 12.04167482 4.0625 13.5625 C4.05347656 14.38878906 4.04445313 15.21507812 4.03515625 16.06640625 C4.02355469 16.70449219 4.01195313 17.34257813 4 18 C3.67 18 3.34 18 3 18 C2.49309416 15.93918639 1.99475381 13.87626474 1.5 11.8125 C1.2215625 10.66394531 0.943125 9.51539063 0.65625 8.33203125 C0.08504615 5.43181171 -0.13283779 2.93903615 0 0 Z " fill="#EDA062" transform="translate(119,977)"/>
<path d="M0 0 C-1.55500981 3.81684226 -4.03595495 6.19195732 -7 9 C-7.99 8.67 -8.98 8.34 -10 8 C-8.71451591 6.66070495 -7.42141845 5.32871357 -6.125 4 C-5.04605469 2.88625 -5.04605469 2.88625 -3.9453125 1.75 C-2 0 -2 0 0 0 Z " fill="#F0A162" transform="translate(1324,1356)"/>
<path d="M0 0 C0.33 0.66 0.66 1.32 1 2 C-2 6 -5 10 -8 14 C-8.66 13.67 -9.32 13.34 -10 13 C-9.52949219 12.39671875 -9.05898437 11.7934375 -8.57421875 11.171875 C-7.64029297 9.97304687 -7.64029297 9.97304687 -6.6875 8.75 C-6.07261719 7.96109375 -5.45773437 7.1721875 -4.82421875 6.359375 C-3.19620982 4.2537703 -1.59064137 2.13390657 0 0 Z " fill="#EEA56C" transform="translate(1397,1275)"/>
<path d="M0 0 C0.33 0.66 0.66 1.32 1 2 C-0.1796875 4.53125 -0.1796875 4.53125 -1.875 7.5 C-2.42929687 8.4796875 -2.98359375 9.459375 -3.5546875 10.46875 C-4.03164063 11.3040625 -4.50859375 12.139375 -5 13 C-5.33 13.66 -5.66 14.32 -6 15 C-6.66 14.67 -7.32 14.34 -8 14 C-6.85632262 11.85299207 -5.71017393 9.70737007 -4.5625 7.5625 C-4.23701172 6.95083984 -3.91152344 6.33917969 -3.57617188 5.70898438 C-1.11328125 1.11328125 -1.11328125 1.11328125 0 0 Z " fill="#403C89" transform="translate(723,981)"/>
<path d="M0 0 C0.33 0.99 0.66 1.98 1 3 C0.01 3.33 -0.98 3.66 -2 4 C-3.00916033 5.76591887 -3.00916033 5.76591887 -4 8 C-5.31542376 10.01182457 -6.6459068 12.01399663 -8 14 C-8.66 13.67 -9.32 13.34 -10 13 C-8.5217985 11.02010587 -7.0424882 9.04105782 -5.5625 7.0625 C-5.14162109 6.49853516 -4.72074219 5.93457031 -4.28710938 5.35351562 C-1.11328125 1.11328125 -1.11328125 1.11328125 0 0 Z " fill="#EEA66D" transform="translate(260,384)"/>
<path d="M0 0 C0.33 0.99 0.66 1.98 1 3 C-1.64 5.64 -4.28 8.28 -7 11 C-7.66 10.67 -8.32 10.34 -9 10 C-6.03 6.7 -3.06 3.4 0 0 Z " fill="#EFA265" transform="translate(1374,1303)"/>
<path d="M0 0 C0.33 1.32 0.66 2.64 1 4 C-0.65234375 6.359375 -0.65234375 6.359375 -2.9375 8.75 C-4.06478516 9.94882812 -4.06478516 9.94882812 -5.21484375 11.171875 C-5.80394531 11.77515625 -6.39304687 12.3784375 -7 13 C-7.66 12.67 -8.32 12.34 -9 12 C-6.03 8.04 -3.06 4.08 0 0 Z " fill="#49458F" transform="translate(1092,1006)"/>
<path d="M0 0 C0.33 0 0.66 0 1 0 C0.03644647 11.52164009 0.03644647 11.52164009 -1 17 C-1.33 17 -1.66 17 -2 17 C-2.05441656 15.10448978 -2.09298035 13.2085208 -2.125 11.3125 C-2.14820313 10.25675781 -2.17140625 9.20101562 -2.1953125 8.11328125 C-1.99858729 4.97748141 -1.33057654 2.82354627 0 0 Z " fill="#E88042" transform="translate(289,721)"/>
<path d="M0 0 C0.33 1.32 0.66 2.64 1 4 C0.34 4 -0.32 4 -1 4 C-1.103125 4.556875 -1.20625 5.11375 -1.3125 5.6875 C-2.14011401 8.47129258 -3.37737752 10.59851873 -5 13 C-5.99 13.495 -5.99 13.495 -7 14 C-5.23570801 9.02790438 -2.6060834 4.56561939 0 0 Z " fill="#DD9960" transform="translate(674,681)"/>
<path d="M0 0 C1.91789713 0.28346278 3.83429183 0.5771028 5.75 0.875 C7.35101562 1.11863281 7.35101562 1.11863281 8.984375 1.3671875 C11.67708871 1.93223882 13.63572439 2.63422914 16 4 C9.84765625 4.09765625 9.84765625 4.09765625 8 4 C7.67 3.67 7.34 3.34 7 3 C4.67182036 2.63239269 2.3381615 2.29758419 0 2 C0 1.34 0 0.68 0 0 Z " fill="#ED9E60" transform="translate(1000,119)"/>
<path d="M0 0 C2.91227269 3.28804981 4.49701212 5.59885603 5 10 C3.68 10.33 2.36 10.66 1 11 C1.020625 10.113125 1.04125 9.22625 1.0625 8.3125 C1.00713781 5.37830369 0.6694266 2.84506304 0 0 Z " fill="#F4C171" transform="translate(1059,777)"/>
<path d="M0 0 C-5.00073317 2.80041057 -10.25451416 4.34821126 -16 4 C-10.4459427 0.29729514 -6.54495663 -0.22186294 0 0 Z " fill="#E78144" transform="translate(720,287)"/>
<path d="M0 0 C0 0.99 0 1.98 0 3 C-2.8125 5.75 -2.8125 5.75 -6 8 C-6.99 7.67 -7.98 7.34 -9 7 C-7.87720538 6.01830524 -6.75168527 5.03972702 -5.625 4.0625 C-4.68527344 3.24458984 -4.68527344 3.24458984 -3.7265625 2.41015625 C-2 1 -2 1 0 0 Z " fill="#43408D" transform="translate(652,883)"/>
<path d="M0 0 C0.33 0.66 0.66 1.32 1 2 C0.07421875 3.83984375 0.07421875 3.83984375 -1.3125 5.9375 C-1.76238281 6.62714844 -2.21226562 7.31679688 -2.67578125 8.02734375 C-3.11277344 8.67832031 -3.54976563 9.32929688 -4 10 C-4.99 11.485 -4.99 11.485 -6 13 C-6.66 12.67 -7.32 12.34 -8 12 C-5.36 8.04 -2.72 4.08 0 0 Z " fill="#E8864B" transform="translate(301,482)"/>
<path d="M0 0 C0.66 0.33 1.32 0.66 2 1 C-0.97 3.97 -3.94 6.94 -7 10 C-7.99 9.67 -8.98 9.34 -10 9 C-6.7 6.03 -3.4 3.06 0 0 Z " fill="#FEE8D0" transform="translate(476,408)"/>
<path d="M0 0 C0.33 0.66 0.66 1.32 1 2 C-0.11799986 3.33920838 -1.24461897 4.67122556 -2.375 6 C-3.00148438 6.7425 -3.62796875 7.485 -4.2734375 8.25 C-4.84320313 8.8275 -5.41296875 9.405 -6 10 C-6.66 10 -7.32 10 -8 10 C-6.34908222 5.70761377 -3.26245434 3.1206085 0 0 Z " fill="#EA8345" transform="translate(366,399)"/>
<path d="M0 0 C1 2 1 2 0.25 5.0625 C-0.1625 6.031875 -0.575 7.00125 -1 8 C-1.99 8.33 -2.98 8.66 -4 9 C-4 9.66 -4 10.32 -4 11 C-4.66 10.67 -5.32 10.34 -6 10 C-4.02 6.7 -2.04 3.4 0 0 Z " fill="#DD8A64" transform="translate(824,416)"/>
<path d="M0 0 C1.24546405 2.49092811 0.7767578 3.41080733 0 6 C0.66 6.33 1.32 6.66 2 7 C0.02 7.66 -1.96 8.32 -4 9 C-2.94124926 5.59687262 -1.99097846 2.98646769 0 0 Z " fill="#E7A26D" transform="translate(619,778)"/>
<path d="M0 0 C0.33 0.66 0.66 1.32 1 2 C0.00390625 4.3828125 0.00390625 4.3828125 -1.4375 7.125 C-1.91058594 8.03507813 -2.38367188 8.94515625 -2.87109375 9.8828125 C-3.24363281 10.58148437 -3.61617187 11.28015625 -4 12 C-4.66 12 -5.32 12 -6 12 C-4.43358249 7.69235185 -2.31663844 3.93828536 0 0 Z " fill="#DFA76C" transform="translate(627,764)"/>
<path d="M0 0 C1.12377697 3.30435084 0.89554742 5.0506862 -0.4375 8.25 C-0.72496094 8.95640625 -1.01242188 9.6628125 -1.30859375 10.390625 C-1.53675781 10.92171875 -1.76492187 11.4528125 -2 12 C-2.66 12 -3.32 12 -4 12 C-3.52309796 10.37433394 -3.04340334 8.74948689 -2.5625 7.125 C-2.29566406 6.22007812 -2.02882812 5.31515625 -1.75390625 4.3828125 C-1 2 -1 2 0 0 Z " fill="#EEA266" transform="translate(163,548)"/>
<path d="M0 0 C0.33 0.66 0.66 1.32 1 2 C0.00390625 4.3828125 0.00390625 4.3828125 -1.4375 7.125 C-1.91058594 8.03507813 -2.38367188 8.94515625 -2.87109375 9.8828125 C-3.24363281 10.58148437 -3.61617188 11.28015625 -4 12 C-4.66 12 -5.32 12 -6 12 C-4.43358249 7.69235185 -2.31663844 3.93828536 0 0 Z " fill="#E78549" transform="translate(279,518)"/>
<path d="M0 0 C0.33 0.66 0.66 1.32 1 2 C-0.97764782 6.06516496 -3.7373124 8.91367389 -7 12 C-5.44298069 7.32894208 -2.91552627 3.91294315 0 0 Z " fill="#E78245" transform="translate(309,470)"/>
<path d="M0 0 C0.33 0.66 0.66 1.32 1 2 C-0.60298093 5.68685613 -2.47605388 8.87511433 -5 12 C-5.66 11.67 -6.32 11.34 -7 11 C-4.69 7.37 -2.38 3.74 0 0 Z " fill="#EEA66C" transform="translate(214,450)"/>
<path d="M0 0 C0.33 0.99 0.66 1.98 1 3 C-1.31 4.98 -3.62 6.96 -6 9 C-6.66 8.67 -7.32 8.34 -8 8 C-5.36 5.36 -2.72 2.72 0 0 Z " fill="#EB884C" transform="translate(378,386)"/>
<path d="M0 0 C0.6875 1.6875 0.6875 1.6875 1 4 C-0.64076492 7.44560634 -1.78512442 8.85674962 -5 11 C-3.55049545 7.2089881 -1.84827434 3.6125362 0 0 Z " fill="#EE9E5E" transform="translate(1462,1177)"/>
<path d="M0 0 C0.33 0.66 0.66 1.32 1 2 C0.06421005 4.35981813 -0.93347808 6.69631264 -2 9 C-2.66 9 -3.32 9 -4 9 C-4 9.66 -4 10.32 -4 11 C-4.66 10.67 -5.32 10.34 -6 10 C-4.02 6.7 -2.04 3.4 0 0 Z " fill="#DD9866" transform="translate(708,621)"/>
<path d="M0 0 C0.33 0.66 0.66 1.32 1 2 C0.328125 3.875 0.328125 3.875 -0.75 6 C-1.26820313 7.051875 -1.26820313 7.051875 -1.796875 8.125 C-3 10 -3 10 -6 12 C-4.43358249 7.69235185 -2.31663844 3.93828536 0 0 Z " fill="#EDA368" transform="translate(205,465)"/>
<path d="M0 0 C0.66 0.99 1.32 1.98 2 3 C0.7260411 5.03833424 -0.61061923 7.03852126 -2 9 C-2.66 9 -3.32 9 -4 9 C-2.94124926 5.59687262 -1.99097846 2.98646769 0 0 Z " fill="#E1A161" transform="translate(632,755)"/>
<path d="M0 0 C0.66 0.33 1.32 0.66 2 1 C-0.77280706 4.08089673 -3.06326356 5.68775452 -7 7 C-5.55609075 3.19333016 -3.65047197 1.73397418 0 0 Z " fill="#423F8C" transform="translate(752,954)"/>
<path d="M0 0 C0 4.31618166 -2.13270348 5.92789659 -5 9 C-5.66 9 -6.32 9 -7 9 C-5.44499019 5.18315774 -2.96404505 2.80804268 0 0 Z " fill="#EEA56B" transform="translate(299,338)"/>
<path d="M0 0 C0.66 0.33 1.32 0.66 2 1 C-0.97 3.475 -0.97 3.475 -4 6 C-4 5.01 -4 4.02 -4 3 C-2 1.3125 -2 1.3125 0 0 Z " fill="#3E3A8C" transform="translate(742,961)"/>
<path d="M0 0 C0 4.0333534 -1.60879918 5.83517538 -4 9 C-4.66 9 -5.32 9 -6 9 C-4.47291037 5.56404834 -2.40072955 2.88087546 0 0 Z " fill="#E78041" transform="translate(332,439)"/>
</svg>
